<svg width="21" height="21" viewBox="0 0 21 21" fill="none" xmlns="http://www.w3.org/2000/svg">
<path d="M15.75 16.625V20.7375C16.3676 20.5258 16.9295 20.1776 17.3941 19.719L19.7181 17.3932C20.1773 16.9292 20.5258 16.3675 20.7375 15.75H16.625C16.3929 15.75 16.1704 15.8422 16.0063 16.0063C15.8422 16.1704 15.75 16.3929 15.75 16.625Z" fill="#3A4060"/>
<path d="M6.2755 12.0995C5.95037 12.4245 5.69246 12.8104 5.5165 13.2351C5.34054 13.6599 5.24998 14.1151 5.25 14.5748V15.75H6.42512C6.88486 15.75 7.3401 15.6594 7.76483 15.4835C8.18956 15.3075 8.57547 15.0496 8.9005 14.7245L18.8125 4.81245C19.1606 4.46436 19.3562 3.99224 19.3562 3.49995C19.3562 3.00767 19.1606 2.53555 18.8125 2.18745C18.4644 1.83936 17.9923 1.6438 17.5 1.6438C17.0077 1.6438 16.5356 1.83936 16.1875 2.18745L6.2755 12.0995Z" fill="#3A4060"/>
<path d="M21 4.333C20.851 4.98208 20.5237 5.57665 20.055 6.04975L10.1378 15.9626C9.65131 16.4516 9.0727 16.8393 8.43543 17.1032C7.79816 17.3671 7.11487 17.502 6.42512 17.5H5.25C4.78587 17.5 4.34075 17.3156 4.01256 16.9874C3.68437 16.6592 3.5 16.2141 3.5 15.75V14.5749C3.49808 13.8852 3.63306 13.202 3.89711 12.5648C4.16116 11.9277 4.54903 11.3493 5.03825 10.8631L14.9503 0.95025C15.4198 0.480847 16.011 0.151759 16.6574 0C16.646 0 16.6364 0 16.625 0H4.375C3.2151 0.00138938 2.10311 0.462772 1.28294 1.28294C0.462772 2.10311 0.00138938 3.2151 0 4.375L0 16.625C0.00138938 17.7849 0.462772 18.8969 1.28294 19.7171C2.10311 20.5372 3.2151 20.9986 4.375 21H14V16.625C14 15.9288 14.2766 15.2611 14.7688 14.7688C15.2611 14.2766 15.9288 14 16.625 14H21V4.375C21 4.361 21 4.34788 21 4.333Z" fill="#3A4060"/>
</svg>
