<svg width="20" height="20" viewBox="0 0 20 20" fill="none" xmlns="http://www.w3.org/2000/svg">
<path d="M9.99992 0.833252C8.18693 0.833252 6.41465 1.37087 4.9072 2.37811C3.39974 3.38536 2.22483 4.817 1.53103 6.49199C0.837224 8.16698 0.655693 10.0101 1.00939 11.7882C1.36309 13.5664 2.23613 15.1997 3.51811 16.4817C4.80009 17.7637 6.43344 18.6368 8.21159 18.9904C9.98975 19.3441 11.8329 19.1626 13.5079 18.4688C15.1828 17.775 16.6145 16.6001 17.6217 15.0926C18.629 13.5852 19.1666 11.8129 19.1666 9.99992C19.1637 7.56965 18.197 5.23974 16.4786 3.52127C14.7601 1.80281 12.4302 0.836119 9.99992 0.833252ZM9.99992 17.4999C8.51656 17.4999 7.06651 17.0601 5.83315 16.2359C4.59978 15.4118 3.63848 14.2405 3.07083 12.87C2.50317 11.4996 2.35464 9.9916 2.64403 8.53674C2.93342 7.08188 3.64773 5.74551 4.69662 4.69662C5.74552 3.64772 7.08189 2.93342 8.53675 2.64403C9.9916 2.35464 11.4996 2.50316 12.87 3.07082C14.2405 3.63848 15.4118 4.59977 16.2359 5.83314C17.0601 7.06651 17.4999 8.51656 17.4999 9.99992C17.4975 11.9883 16.7065 13.8945 15.3005 15.3005C13.8945 16.7065 11.9883 17.4975 9.99992 17.4999Z" fill="#3A4060"/>
<path d="M13.3334 9.16659H10.8334V6.66659C10.8334 6.44557 10.7456 6.23361 10.5893 6.07733C10.433 5.92105 10.221 5.83325 10 5.83325C9.77902 5.83325 9.56706 5.92105 9.41078 6.07733C9.2545 6.23361 9.1667 6.44557 9.1667 6.66659V9.16659H6.66671C6.44569 9.16659 6.23373 9.25438 6.07745 9.41066C5.92117 9.56694 5.83337 9.77891 5.83337 9.99992C5.83337 10.2209 5.92117 10.4329 6.07745 10.5892C6.23373 10.7455 6.44569 10.8333 6.66671 10.8333H9.1667V13.3333C9.1667 13.5543 9.2545 13.7662 9.41078 13.9225C9.56706 14.0788 9.77902 14.1666 10 14.1666C10.221 14.1666 10.433 14.0788 10.5893 13.9225C10.7456 13.7662 10.8334 13.5543 10.8334 13.3333V10.8333H13.3334C13.5544 10.8333 13.7663 10.7455 13.9226 10.5892C14.0789 10.4329 14.1667 10.2209 14.1667 9.99992C14.1667 9.77891 14.0789 9.56694 13.9226 9.41066C13.7663 9.25438 13.5544 9.16659 13.3334 9.16659Z" fill="#3A4060"/>
</svg>
