<svg width="20" height="20" viewBox="0 0 20 20" fill="none" xmlns="http://www.w3.org/2000/svg">
<g opacity="0.7">
<path d="M10.0002 0.833252C8.18717 0.833252 6.41489 1.37087 4.90744 2.37811C3.39999 3.38536 2.22507 4.817 1.53127 6.49199C0.837468 8.16698 0.655937 10.0101 1.00964 11.7882C1.36333 13.5664 2.23637 15.1997 3.51835 16.4817C4.80034 17.7637 6.43368 18.6368 8.21184 18.9904C9.99 19.3441 11.8331 19.1626 13.5081 18.4688C15.1831 17.775 16.6147 16.6001 17.622 15.0926C18.6292 13.5852 19.1668 11.8129 19.1668 9.99992C19.164 7.56965 18.1973 5.23974 16.4788 3.52127C14.7604 1.80281 12.4304 0.836119 10.0002 0.833252ZM10.0002 17.4999C8.51681 17.4999 7.06676 17.0601 5.83339 16.2359C4.60002 15.4118 3.63873 14.2405 3.07107 12.87C2.50341 11.4996 2.35489 9.9916 2.64428 8.53674C2.93367 7.08188 3.64797 5.74551 4.69687 4.69662C5.74576 3.64772 7.08213 2.93342 8.53699 2.64403C9.99185 2.35464 11.4998 2.50316 12.8703 3.07082C14.2407 3.63848 15.4121 4.59977 16.2362 5.83314C17.0603 7.06651 17.5002 8.51656 17.5002 9.99992C17.4977 11.9883 16.7068 13.8945 15.3008 15.3005C13.8948 16.7065 11.9885 17.4975 10.0002 17.4999Z" fill="#3A4060"/>
<path d="M13.3335 9.16659H10.8335V6.66659C10.8335 6.44557 10.7457 6.23361 10.5894 6.07733C10.4331 5.92105 10.2212 5.83325 10.0002 5.83325C9.77914 5.83325 9.56718 5.92105 9.4109 6.07733C9.25462 6.23361 9.16682 6.44557 9.16682 6.66659V9.16659H6.66683C6.44581 9.16659 6.23385 9.25438 6.07757 9.41066C5.92129 9.56694 5.8335 9.77891 5.8335 9.99992C5.8335 10.2209 5.92129 10.4329 6.07757 10.5892C6.23385 10.7455 6.44581 10.8333 6.66683 10.8333H9.16682V13.3333C9.16682 13.5543 9.25462 13.7662 9.4109 13.9225C9.56718 14.0788 9.77914 14.1666 10.0002 14.1666C10.2212 14.1666 10.4331 14.0788 10.5894 13.9225C10.7457 13.7662 10.8335 13.5543 10.8335 13.3333V10.8333H13.3335C13.5545 10.8333 13.7665 10.7455 13.9227 10.5892C14.079 10.4329 14.1668 10.2209 14.1668 9.99992C14.1668 9.77891 14.079 9.56694 13.9227 9.41066C13.7665 9.25438 13.5545 9.16659 13.3335 9.16659Z" fill="#3A4060"/>
</g>
</svg>
