<svg width="8" height="12" viewBox="0 0 8 12" fill="none" xmlns="http://www.w3.org/2000/svg">
<path d="M6.82552 0.000206632C7.00288 -0.00369422 7.17704 0.0477192 7.3238 0.147378C7.47056 0.247037 7.58263 0.390016 7.64441 0.556308C7.7062 0.722601 7.71464 0.903987 7.66856 1.0753C7.62247 1.24661 7.52416 1.39923 7.38728 1.51209L2.1647 5.9862L7.38728 10.4587C7.48197 10.5283 7.56126 10.6167 7.62021 10.7183C7.67915 10.82 7.71646 10.9327 7.72982 11.0495C7.74318 11.1662 7.73228 11.2845 7.69783 11.3968C7.66337 11.5091 7.60608 11.6132 7.52956 11.7024C7.45304 11.7915 7.35894 11.8639 7.25313 11.915C7.14733 11.9661 7.03211 11.9948 6.91469 11.9994C6.79727 12.0039 6.68018 11.9842 6.57076 11.9414C6.46133 11.8986 6.36192 11.8336 6.27876 11.7506L0.299372 6.63464C0.205472 6.55451 0.130071 6.45505 0.0783682 6.34296C0.0266647 6.23086 -0.000109196 6.10886 -0.000109196 5.98541C-0.000109196 5.86197 0.0266647 5.73996 0.0783682 5.62787C0.130071 5.51578 0.205472 5.41622 0.299372 5.33609L6.27876 0.215205C6.4298 0.0810394 6.62354 0.00476303 6.82552 9.74702e-06V0.000206632Z" fill="#3A4060"/>
</svg>
