<svg width="32" height="27" viewBox="0 0 32 27" fill="none" xmlns="http://www.w3.org/2000/svg">
<path d="M23.2729 2C23.2729 0.895431 22.3775 0 21.2729 0H2.00006C0.895493 0 6.29425e-05 0.895431 6.29425e-05 2V19.4862C6.29425e-05 20.2264 0.77627 20.71 1.44072 20.3839L7.16095 17.5759H21.2729C22.3775 17.5759 23.2729 16.6804 23.2729 15.5759V2Z" fill="#FE5900" fill-opacity="0.5"/>
<g filter="url(#filter0_bi_1172_4065)">
<path d="M8.72803 7.09094C8.72803 5.98637 9.62346 5.09094 10.728 5.09094H30.0009C31.1055 5.09094 32.0009 5.98637 32.0009 7.09094V24.5771C32.0009 25.3173 31.2247 25.801 30.5603 25.4748L24.84 22.6668H10.728C9.62346 22.6668 8.72803 21.7714 8.72803 20.6668V7.09094Z" fill="#FE5900" fill-opacity="0.7"/>
</g>
<g filter="url(#filter1_i_1172_4065)">
<rect x="12.3643" y="16.0001" width="16.0001" height="2.90911" rx="1" fill="#FAF9F8" fill-opacity="0.8"/>
</g>
<g filter="url(#filter2_i_1172_4065)">
<rect x="12.3643" y="8.72729" width="16.0001" height="2.90911" rx="1" fill="#FAF9F8" fill-opacity="0.8"/>
</g>
<defs>
<filter id="filter0_bi_1172_4065" x="5.72803" y="2.09094" width="29.2729" height="26.4874" filterUnits="userSpaceOnUse" color-interpolation-filters="sRGB">
<feFlood flood-opacity="0" result="BackgroundImageFix"/>
<feGaussianBlur in="BackgroundImage" stdDeviation="1.5"/>
<feComposite in2="SourceAlpha" operator="in" result="effect1_backgroundBlur_1172_4065"/>
<feBlend mode="normal" in="SourceGraphic" in2="effect1_backgroundBlur_1172_4065" result="shape"/>
<feColorMatrix in="SourceAlpha" type="matrix" values="0 0 0 0 0 0 0 0 0 0 0 0 0 0 0 0 0 0 127 0" result="hardAlpha"/>
<feOffset dy="0.5"/>
<feGaussianBlur stdDeviation="1"/>
<feComposite in2="hardAlpha" operator="arithmetic" k2="-1" k3="1"/>
<feColorMatrix type="matrix" values="0 0 0 0 1 0 0 0 0 1 0 0 0 0 1 0 0 0 0.15 0"/>
<feBlend mode="normal" in2="shape" result="effect2_innerShadow_1172_4065"/>
</filter>
<filter id="filter1_i_1172_4065" x="12.3643" y="16.0001" width="16" height="3.40906" filterUnits="userSpaceOnUse" color-interpolation-filters="sRGB">
<feFlood flood-opacity="0" result="BackgroundImageFix"/>
<feBlend mode="normal" in="SourceGraphic" in2="BackgroundImageFix" result="shape"/>
<feColorMatrix in="SourceAlpha" type="matrix" values="0 0 0 0 0 0 0 0 0 0 0 0 0 0 0 0 0 0 127 0" result="hardAlpha"/>
<feOffset dy="0.5"/>
<feGaussianBlur stdDeviation="0.25"/>
<feComposite in2="hardAlpha" operator="arithmetic" k2="-1" k3="1"/>
<feColorMatrix type="matrix" values="0 0 0 0 1 0 0 0 0 1 0 0 0 0 1 0 0 0 0.1 0"/>
<feBlend mode="normal" in2="shape" result="effect1_innerShadow_1172_4065"/>
</filter>
<filter id="filter2_i_1172_4065" x="12.3643" y="8.72729" width="16" height="3.40906" filterUnits="userSpaceOnUse" color-interpolation-filters="sRGB">
<feFlood flood-opacity="0" result="BackgroundImageFix"/>
<feBlend mode="normal" in="SourceGraphic" in2="BackgroundImageFix" result="shape"/>
<feColorMatrix in="SourceAlpha" type="matrix" values="0 0 0 0 0 0 0 0 0 0 0 0 0 0 0 0 0 0 127 0" result="hardAlpha"/>
<feOffset dy="0.5"/>
<feGaussianBlur stdDeviation="0.25"/>
<feComposite in2="hardAlpha" operator="arithmetic" k2="-1" k3="1"/>
<feColorMatrix type="matrix" values="0 0 0 0 1 0 0 0 0 1 0 0 0 0 1 0 0 0 0.1 0"/>
<feBlend mode="normal" in2="shape" result="effect1_innerShadow_1172_4065"/>
</filter>
</defs>
</svg>
