<svg width="19" height="19" viewBox="0 0 19 19" fill="none" xmlns="http://www.w3.org/2000/svg">
<path d="M13.4655 6.12769H12.4709C12.2546 6.12769 12.0489 6.23159 11.9217 6.40972L8.58823 11.0325L7.07841 8.9374C6.95118 8.76139 6.7476 8.65536 6.52919 8.65536H5.53466C5.39682 8.65536 5.31624 8.81228 5.39682 8.92467L8.03901 12.589C8.10143 12.6761 8.18371 12.7471 8.27904 12.796C8.37437 12.845 8.48 12.8705 8.58717 12.8705C8.69434 12.8705 8.79997 12.845 8.8953 12.796C8.99063 12.7471 9.07291 12.6761 9.13533 12.589L13.6012 6.39699C13.6839 6.28461 13.6033 6.12769 13.4655 6.12769V6.12769Z" fill="#FE5900"/>
<path d="M9.5 0C4.25379 0 0 4.25379 0 9.5C0 14.7462 4.25379 19 9.5 19C14.7462 19 19 14.7462 19 9.5C19 4.25379 14.7462 0 9.5 0ZM9.5 17.3884C5.14442 17.3884 1.61161 13.8556 1.61161 9.5C1.61161 5.14442 5.14442 1.61161 9.5 1.61161C13.8556 1.61161 17.3884 5.14442 17.3884 9.5C17.3884 13.8556 13.8556 17.3884 9.5 17.3884Z" fill="#FE5900"/>
</svg>
