<svg width="48" height="48" viewBox="0 0 48 48" fill="none" xmlns="http://www.w3.org/2000/svg">
<path d="M14.6882 28.5116C14.6882 31.4664 17.0922 33.8705 20.0471 33.8705H27.953C30.9079 33.8705 33.3119 31.4664 33.3119 28.5116C33.3119 24.8345 31.1694 21.6488 28.0673 20.1362C28.8715 19.1986 29.359 17.9819 29.359 16.6527C29.359 13.6978 26.955 11.2938 24.0001 11.2938C21.0451 11.2938 18.6412 13.6977 18.6412 16.6527C18.6412 17.9819 19.1287 19.1986 19.9329 20.1362C16.8308 21.6487 14.6882 24.8345 14.6882 28.5116V28.5116ZM21.4529 16.6527C21.4529 15.2483 22.5955 14.1057 24 14.1057C25.4044 14.1057 26.547 15.2482 26.547 16.6527C26.547 18.0572 25.4045 19.1997 24 19.1997C22.5956 19.1997 21.4529 18.0571 21.4529 16.6527V16.6527ZM24 22.0116C27.584 22.0116 30.5 24.9274 30.5 28.5116C30.5 29.916 29.3575 31.0586 27.9529 31.0586H20.047C18.6426 31.0586 17.5 29.916 17.5 28.5116C17.5001 24.9274 20.4159 22.0116 24 22.0116V22.0116Z" fill="#FE5900"/>
<path d="M8.32107 9.75189C12.1255 5.56386 17.3331 3.1081 22.9845 2.83685C28.6362 2.56523 34.0549 4.51139 38.2429 8.3158L39.1156 9.10854L36.0458 9.25588C35.2702 9.29309 34.6717 9.952 34.7089 10.7276C34.745 11.4802 35.3665 12.0662 36.1121 12.0661C36.1348 12.0661 36.1576 12.0656 36.1805 12.0644L42.6406 11.7544C43.4162 11.7172 44.0147 11.0583 43.9775 10.2827L43.6675 3.82259C43.6303 3.04699 42.9701 2.44863 42.1958 2.48565C41.4202 2.52286 40.8217 3.18177 40.8589 3.95737L41.0062 7.02723L40.1334 6.23439C35.3897 1.92507 29.2512 -0.278562 22.8498 0.0282085C16.4481 0.335448 10.5492 3.11728 6.23985 7.86122C0.762964 13.8902 -1.27421 22.2 0.790145 30.0897C0.955574 30.7215 1.52544 31.1401 2.14938 31.1401C2.2672 31.1401 2.38689 31.1252 2.5062 31.094C3.25743 30.8974 3.70704 30.1291 3.5105 29.3779C1.68759 22.4114 3.48594 15.0745 8.32107 9.75189V9.75189Z" fill="#FE5900"/>
<path d="M47.21 17.8989C47.0134 17.1478 46.2449 16.6979 45.4939 16.8947C44.7427 17.0913 44.2931 17.8596 44.4897 18.6108C46.3126 25.5773 44.5142 32.9141 39.6791 38.2368C35.8747 42.4248 30.6671 44.8806 25.0156 45.1518C24.6679 45.1685 24.3219 45.1769 23.9761 45.1769C18.7027 45.1767 13.6876 43.2433 9.75727 39.6729L8.88458 38.8802L11.9543 38.7328C12.7299 38.6956 13.3285 38.0367 13.2913 37.2611C13.2542 36.4855 12.5941 35.8865 11.8197 35.9242L5.35957 36.2342C4.58398 36.2714 3.98543 36.9303 4.02264 37.7059L4.33269 44.166C4.36878 44.9187 4.99029 45.5045 5.73589 45.5045C5.75857 45.5045 5.78144 45.504 5.80431 45.5029C6.57991 45.4656 7.17845 44.8067 7.14124 44.0311L6.994 40.9613L7.86679 41.7541C12.3191 45.7987 17.9993 47.9888 23.9731 47.9887C24.3644 47.9887 24.7572 47.9792 25.1505 47.9604C31.5522 47.6532 37.4511 44.8713 41.7605 40.1274C47.2372 34.0984 49.2745 25.7886 47.21 17.8989V17.8989Z" fill="#FE5900"/>
</svg>
