<svg width="19" height="19" viewBox="0 0 19 19" fill="none" xmlns="http://www.w3.org/2000/svg">
<path d="M9.5 0C4.25379 0 0 4.25379 0 9.5C0 14.7462 4.25379 19 9.5 19C14.7462 19 19 14.7462 19 9.5C19 4.25379 14.7462 0 9.5 0ZM9.5 17.3884C5.14442 17.3884 1.61161 13.8556 1.61161 9.5C1.61161 5.14442 5.14442 1.61161 9.5 1.61161C13.8556 1.61161 17.3884 5.14442 17.3884 9.5C17.3884 13.8556 13.8556 17.3884 9.5 17.3884Z" fill="#FE5900"/>
<path d="M14 5.21403C14 5.09631 13.9066 5 13.7924 5L12.0796 5.00803L9.5 8.17836L6.92301 5.0107L5.20761 5.00268C5.09343 5.00268 5 5.09631 5 5.21671C5 5.26754 5.01817 5.3157 5.04931 5.35583L8.42561 9.50267L5.04931 13.6468C5.01795 13.6861 5.00055 13.7352 5 13.786C5 13.9037 5.09343 14 5.20761 14L6.92301 13.992L9.5 10.8216L12.077 13.9893L13.7898 13.9973C13.904 13.9973 13.9974 13.9037 13.9974 13.7833C13.9974 13.7325 13.9792 13.6843 13.9481 13.6442L10.577 9.5L13.9533 5.35315C13.9844 5.3157 14 5.26486 14 5.21403Z" fill="#FE5900"/>
</svg>
