<svg width="42" height="42" viewBox="0 0 42 42" fill="none" xmlns="http://www.w3.org/2000/svg">
<g clip-path="url(#clip0_246_865)">
<path d="M40.6863 19.6883H24.0617C23.3372 19.6883 22.7493 19.1003 22.7493 18.3758C22.7493 17.6513 23.3372 17.0634 24.0617 17.0634H40.6863C41.4108 17.0634 41.9988 17.6513 41.9988 18.3758C41.9988 19.1003 41.4108 19.6883 40.6863 19.6883Z" fill="#FE5900"/>
<path d="M34.1239 26.2504C33.7878 26.2504 33.452 26.1226 33.1963 25.8656C32.6836 25.3526 32.6836 24.5214 33.1963 24.0087L38.8313 18.3741L33.1963 12.7391C32.6836 12.2264 32.6836 11.3952 33.1963 10.8826C33.7093 10.3696 34.5405 10.3696 35.0531 10.8826L41.6154 17.4448C42.1281 17.9575 42.1281 18.7887 41.6154 19.3014L35.0531 25.8637C34.7958 26.1226 34.46 26.2504 34.1239 26.2504Z" fill="#FE5900"/>
<path d="M13.9997 42.0001C13.6251 42.0001 13.2697 41.9476 12.9147 41.8374L2.38332 38.3287C0.950379 37.8282 0 36.493 0 35.0005V3.50146C0 1.57122 1.56976 0.00146484 3.5 0.00146484C3.87425 0.00146484 4.2296 0.0540145 4.58496 0.164241L15.116 3.67289C16.5493 4.17339 17.4993 5.5086 17.4993 7.00114V38.5001C17.4993 40.4304 15.9299 42.0001 13.9997 42.0001ZM3.5 2.62638C3.01872 2.62638 2.62492 3.02018 2.62492 3.50146V35.0005C2.62492 35.3731 2.87517 35.7195 3.23212 35.8438L13.7142 39.3368C13.7895 39.3611 13.8875 39.3752 13.9997 39.3752C14.4809 39.3752 14.8744 38.9814 14.8744 38.5001V7.00114C14.8744 6.62848 14.6242 6.2821 14.2672 6.15778L3.78518 2.66483C3.70988 2.64048 3.61183 2.62638 3.5 2.62638Z" fill="#FE5900"/>
<path d="M26.6865 14.0009C25.962 14.0009 25.3741 13.4129 25.3741 12.6884V4.81368C25.3741 3.60792 24.3926 2.62614 23.1868 2.62614H3.49996C2.77548 2.62614 2.1875 2.03816 2.1875 1.31368C2.1875 0.5892 2.77548 0.0012207 3.49996 0.0012207H23.1868C25.8416 0.0012207 27.999 2.15896 27.999 4.81368V12.6884C27.999 13.4129 27.411 14.0009 26.6865 14.0009Z" fill="#FE5900"/>
<path d="M23.187 36.7502H16.187C15.4625 36.7502 14.8745 36.1622 14.8745 35.4377C14.8745 34.7132 15.4625 34.1252 16.187 34.1252H23.187C24.3927 34.1252 25.3742 33.1435 25.3742 31.9377V24.0629C25.3742 23.3385 25.9622 22.7505 26.6866 22.7505C27.4111 22.7505 27.9991 23.3385 27.9991 24.0629V31.9377C27.9991 34.5924 25.8417 36.7502 23.187 36.7502Z" fill="#FE5900"/>
</g>
<defs>
<clipPath id="clip0_246_865">
<rect width="42" height="42" fill="white"/>
</clipPath>
</defs>
</svg>
