<svg width="18" height="14" viewBox="0 0 18 14" fill="none" xmlns="http://www.w3.org/2000/svg">
<path d="M10.878 3.75H1C0.585786 3.75 0.25 3.41421 0.25 3C0.25 2.58579 0.585786 2.25 1 2.25H10.878C11.1869 1.37611 12.0203 0.75 13 0.75C13.9797 0.75 14.8131 1.37611 15.122 2.25H17C17.4142 2.25 17.75 2.58579 17.75 3C17.75 3.41421 17.4142 3.75 17 3.75H15.122C14.8131 4.62389 13.9797 5.25 13 5.25C12.0203 5.25 11.1869 4.62389 10.878 3.75Z" fill="#3A4060"/>
<path d="M17 11.75C17.4142 11.75 17.75 11.4142 17.75 11C17.75 10.5858 17.4142 10.25 17 10.25H7.12197C6.81309 9.37611 5.97966 8.75 5 8.75C4.02034 8.75 3.18691 9.37611 2.87803 10.25H1C0.585787 10.25 0.25 10.5858 0.25 11C0.25 11.4142 0.585787 11.75 1 11.75H2.87803C3.18691 12.6239 4.02034 13.25 5 13.25C5.97966 13.25 6.81309 12.6239 7.12197 11.75H17Z" fill="#3A4060"/>
</svg>
