<svg width="130" height="192" viewBox="0 0 130 192" fill="none" xmlns="http://www.w3.org/2000/svg">
<path fill-rule="evenodd" clip-rule="evenodd" d="M1.34668 185.558C1.34668 188.657 23.569 191.168 50.9741 191.168C78.3841 191.168 100.601 188.657 100.601 185.559C100.601 182.461 78.3841 179.95 50.9741 179.95C23.569 179.95 1.34668 182.462 1.34668 185.558Z" fill="#D7E2FF"/>
<path fill-rule="evenodd" clip-rule="evenodd" d="M26.6773 164.402C26.6773 164.402 23.6134 166.289 20.3149 168.538C13.3171 165.582 8.97456 161.403 9.04879 156.844C9.05769 156.344 9.12302 155.852 9.24277 155.364C13.8367 152.012 20.0467 148.906 27.6709 146.357C22.6781 149.679 15.5151 154.967 15.9852 157.786C16.6987 162.092 26.6773 164.403 26.6773 164.402Z" fill="#FFECDB"/>
<path fill-rule="evenodd" clip-rule="evenodd" d="M82.1122 169.801C74.6157 183.047 56.0174 187.552 40.9205 186.082C37.0411 185.703 30.7688 185.146 24.2777 183.979L28.2412 180.387C28.2412 180.387 12.1299 177.481 12.3773 175.274C12.6208 173.068 26.6776 164.403 26.6776 164.403C26.6776 164.402 16.6991 162.093 15.9856 157.786C15.5155 154.967 22.6785 149.679 27.6712 146.357C40.8472 141.958 58.2401 139.228 78.7761 139.817C78.7761 139.817 92.6677 151.178 82.1122 169.801Z" fill="#FE5900"/>
<path fill-rule="evenodd" clip-rule="evenodd" d="M9.24291 155.364C9.12316 155.852 9.05784 156.345 9.04893 156.844C8.97471 161.402 13.3173 165.582 20.315 168.538C16.5672 171.088 12.5048 174.101 12.3771 175.274C12.1297 177.48 28.24 180.387 28.24 180.387L24.2775 183.979C12.4107 181.842 -0.166569 177.665 0.00166942 168.789C0.0768819 164.737 2.06012 160.417 9.24291 155.364Z" fill="#F2D0AD"/>
<path fill-rule="evenodd" clip-rule="evenodd" d="M82.1122 169.8C74.6157 183.047 56.0174 187.552 40.9205 186.082C37.0411 185.703 30.7688 185.146 24.2777 183.979L28.2412 180.387C28.2412 180.387 12.1299 177.481 12.3773 175.274C12.505 174.1 16.5665 171.089 20.3152 168.538C26.4925 171.154 34.7352 172.822 43.8152 172.966C63.1725 173.272 78.9988 166.553 79.1512 157.961C79.2957 149.617 64.6401 142.571 46.0676 141.887C55.7413 140.269 66.7184 139.473 78.7761 139.817C78.7761 139.817 92.6677 151.178 82.1122 169.8Z" fill="#E01505"/>
<path fill-rule="evenodd" clip-rule="evenodd" d="M51.5432 81.9829C51.0444 82.4164 41.3578 90.7452 35.7624 99.2778C33.222 103.142 31.5188 107.05 31.8939 110.278C31.8949 110.277 26.0135 110.109 25.2515 115.026C22.4181 104.919 28.632 96.8017 35.7376 91.1351C42.962 85.3783 51.1018 82.1601 51.5432 81.9829Z" fill="#FE5900"/>
<path fill-rule="evenodd" clip-rule="evenodd" d="M51.5429 81.9829C51.0441 82.4164 41.3575 90.7452 35.762 99.2779C36.4716 96.9968 37.0644 93.6904 35.7373 91.1351C42.9617 85.3784 51.1015 82.1601 51.5429 81.9829Z" fill="#E01505"/>
<path fill-rule="evenodd" clip-rule="evenodd" d="M77.1587 83.3873C77.5714 83.7575 96.0865 97.8063 97.3394 108.754C97.3394 108.754 102.205 107.838 102.841 112.657C104.424 102.597 98.4082 95.8271 90.693 89.246C84.8373 84.2543 77.5258 83.5091 77.1587 83.3873Z" fill="#FE5900"/>
<path fill-rule="evenodd" clip-rule="evenodd" d="M77.1587 83.3873C77.5714 83.7575 87.8429 91.7538 93.3106 99.6373C92.7258 97.4452 92.9108 94.9256 94.0083 92.2021C85.8101 83.6674 77.5258 83.5091 77.1587 83.3873Z" fill="#E01505"/>
<path fill-rule="evenodd" clip-rule="evenodd" d="M74.6726 157.447C74.6637 158.044 74.5984 159.224 74.351 160.188C76.5035 160.301 78.7549 159.817 80.5115 158.819C83.9089 156.884 84.3256 152.63 82.8124 149.319C81.5259 146.503 78.9528 144.025 75.9097 143.228C73.9957 142.726 71.864 142.973 69.9095 143.095C67.4977 143.246 65.0929 143.528 62.7099 143.934C58.5158 144.65 54.2396 145.66 50.2771 147.229C47.32 148.399 44.6688 150.461 44.3966 153.855C44.1126 157.401 45.7158 161.07 49.6417 161.091C51.1558 161.1 52.6482 160.762 54.1198 160.335C53.6913 159.639 53.4518 158.863 53.5597 158.118C53.8398 156.094 55.8764 154.093 57.6746 152.995C57.6746 152.995 64.2399 156.047 71.872 152.995C71.8729 152.995 74.6974 154.43 74.6726 157.447Z" fill="#E01505"/>
<path fill-rule="evenodd" clip-rule="evenodd" d="M45.7123 186.347H54.6487C54.6487 186.347 59.0111 178.718 57.2673 163.022H53.1227C53.1227 163.022 54.43 172.179 49.6342 179.372C49.6342 179.372 44.4049 176.102 45.7123 186.347Z" fill="#1D2031"/>
<path fill-rule="evenodd" clip-rule="evenodd" d="M85.86 186.347H76.9245C76.9245 186.347 72.5611 178.718 74.3059 163.022H78.4495C78.4495 163.022 77.1422 172.179 81.938 179.372C81.938 179.372 87.1673 176.102 85.86 186.347Z" fill="#1D2031"/>
<path fill-rule="evenodd" clip-rule="evenodd" d="M95.4144 150.597C88.004 165.856 74.3054 163.022 74.3054 163.022C74.3054 163.022 70.998 162.368 73.8927 158.444C74.541 157.572 74.8002 156.665 74.8082 155.802C74.8378 152.785 71.8719 150.16 71.8719 150.16C64.2398 153.212 57.6746 150.16 57.6746 150.16C55.8774 151.259 54.285 153.386 54.005 155.41C53.8318 156.613 54.1158 157.772 55.0847 158.662C57.7003 161.06 57.2668 163.022 57.2668 163.022C53.1222 167.818 41.6375 162.856 36.1202 157.45C28.9167 150.387 27.7746 144.039 28.7435 139.156C29.9637 132.973 34.5576 129.128 34.5576 129.128C32.0469 111.968 38.5696 96.4465 43.592 87.5081C46.4174 82.4768 48.7639 79.5297 48.7639 79.5297H76.0294C78.0621 81.3605 79.8514 83.3843 81.4179 85.5378C93.637 102.297 92.5811 126.617 92.5811 126.617C92.5811 126.617 96.8444 130.245 97.8836 136.915C98.4486 140.585 98.0488 145.181 95.4144 150.597Z" fill="#FE5900"/>
<path fill-rule="evenodd" clip-rule="evenodd" d="M81.4182 85.5378C74.4621 91.336 73.8317 101.259 67.7286 101.835C61.6255 102.419 50.2892 89.6269 43.5923 87.5081C46.4177 82.4768 48.7641 79.5297 48.7641 79.5297H76.0297C78.0624 81.3605 79.8516 83.3843 81.4182 85.5378Z" fill="#F07837"/>
<path fill-rule="evenodd" clip-rule="evenodd" d="M88.8701 117.633C88.8781 118.979 88.8414 120.363 88.7672 121.777C88.7336 122.341 88.7049 122.912 88.6593 123.492C88.4871 125.876 88.119 128.058 87.5915 130.059C83.6211 145.199 70.7053 149.72 65.6948 150.231C60.4012 150.781 45.2459 147.772 39.9434 128.818C39.5594 127.464 39.2299 126.027 38.9577 124.508C38.8677 124.049 38.8014 123.605 38.7311 123.146C38.5124 121.642 38.3768 120.137 38.3184 118.648C38.2818 117.805 38.265 116.964 38.2729 116.128C38.3937 105.23 42.1454 95.1125 45.4646 88.2979C48.0961 82.8747 50.4336 79.5277 50.4336 79.5277H74.4125C76.4828 81.9424 78.3463 84.372 79.9881 86.8847C85.0511 94.6009 88.0577 103.018 88.7296 113.233C88.8246 114.662 88.8701 116.128 88.8701 117.633Z" fill="#FFECDB"/>
<path fill-rule="evenodd" clip-rule="evenodd" d="M65.696 136.038C62.0007 136.421 53.4938 135.066 46.8919 127.765C50.2072 126.903 53.7333 125.385 56.3469 122.717C56.3479 122.717 61.8147 127.734 67.0439 130.239C67.0439 130.239 71.6457 127.23 75.6538 123.221C75.6548 123.221 78.017 125.407 81.5174 127.422C76.108 133.501 69.0895 135.692 65.696 136.038ZM88.7299 113.232C88.6764 112.412 88.6061 111.608 88.52 110.81C88.2519 113.195 87.7857 115.367 87.1633 117.345C85.757 117.006 83.9588 116.332 81.8024 115.023C81.8024 115.022 87.1504 106.616 82.8702 101.855C78.5979 97.0858 72.0376 101.409 72.0376 101.409L72.7056 107.922L68.2602 115.699L70.8956 119.709L66.2522 126.23L65.6297 125.101L68.2602 118.708L64.9993 113.939L68.1325 107.674L63.2754 101.281C63.2754 101.281 51.8282 98.7276 50.0132 104.293C48.1992 109.867 51.081 113.819 51.081 113.819C51.082 113.819 46.2853 119.352 41.7121 119.641C40.5414 116.966 39.5933 113.878 38.958 110.321C38.8966 109.998 38.8462 109.682 38.7927 109.366C38.484 111.57 38.2939 113.834 38.2732 116.128C38.2652 116.964 38.286 117.806 38.3226 118.651C38.3236 118.725 38.3315 118.805 38.3355 118.885C38.3602 119.411 38.3929 119.941 38.4384 120.47C38.4552 120.683 38.4711 120.896 38.4919 121.108C38.5582 121.787 38.6324 122.467 38.7313 123.146C38.8016 123.605 38.8669 124.049 38.958 124.508C39.0906 125.257 39.243 125.983 39.3994 126.692C39.4201 126.772 39.4399 126.848 39.4607 126.928C44.2615 147.57 60.2313 150.796 65.695 150.231C70.7056 149.72 83.6124 145.193 87.5878 130.057C87.6413 129.873 87.6828 129.68 87.7283 129.491C87.7946 129.222 87.86 128.956 87.9213 128.68C87.9876 128.373 88.045 128.059 88.1034 127.744C88.1489 127.51 88.1984 127.281 88.235 127.041C88.3013 126.651 88.3548 126.249 88.4082 125.848C88.433 125.669 88.4616 125.494 88.4864 125.312C88.5567 124.718 88.6141 124.113 88.6596 123.492C88.7051 122.912 88.7338 122.341 88.7675 121.777C88.8041 121.043 88.8328 120.319 88.8496 119.603C88.908 117.398 88.8664 115.276 88.7299 113.232Z" fill="#F2D0AD"/>
<path fill-rule="evenodd" clip-rule="evenodd" d="M79.9879 86.8807C74.3381 92.7492 73.5088 97.161 67.852 97.6935C62.2803 98.2249 52.2434 91.7725 45.4604 88.3018C48.0909 82.8786 50.4373 79.5297 50.4373 79.5297H74.4163C76.4826 81.9365 78.3501 84.369 79.9879 86.8807Z" fill="#F2D0AD"/>
<path fill-rule="evenodd" clip-rule="evenodd" d="M57.2668 163.022C53.1222 167.818 41.6375 162.856 36.1202 157.45C28.9167 150.387 27.7746 144.039 28.7435 139.156C37.383 159.996 48.3799 158.182 54.005 155.41C53.8318 156.613 54.1158 157.772 55.0847 158.662C57.7003 161.06 57.2668 163.022 57.2668 163.022Z" fill="#E01505"/>
<path fill-rule="evenodd" clip-rule="evenodd" d="M95.4143 150.597C88.0039 165.856 74.3054 163.022 74.3054 163.022C74.3054 163.022 70.998 162.368 73.8927 158.444C74.5409 157.572 74.8002 156.665 74.8081 155.802C89.2242 161.304 95.6242 145.085 97.8835 136.915C98.4486 140.585 98.0488 145.181 95.4143 150.597Z" fill="#E01505"/>
<path fill-rule="evenodd" clip-rule="evenodd" d="M27.4898 44.6429C24.4101 43.5326 20.3149 41.0872 16.6493 35.0197C15.5192 33.1572 14.4305 30.9483 13.428 28.3416C10.4799 20.6789 5.96024 15.2794 2.81814 12.17C1.05758 10.4321 1.38316 7.49589 3.49505 6.21035C25.0405 -6.88751 39.2339 3.77287 45.333 10.4895C47.5884 12.9805 48.7393 14.934 48.7393 14.934C57.1186 27.928 31.5186 46.0888 27.4898 44.6429Z" fill="#FE5900"/>
<path fill-rule="evenodd" clip-rule="evenodd" d="M40.4632 19.6279C38.3849 16.9044 30.3313 17.3487 30.3313 17.3487L34.5253 12.3748C34.5253 12.3748 29.7701 10.2817 24.909 12.5045C24.909 12.5035 27.2594 9.58403 29.4159 8.2401C26.2945 5.86893 10.0724 7.7433 8.6582 11.2417C8.05947 12.7212 18.8594 21.331 23.099 31.1057C25.0743 35.658 40.4632 19.6279 40.4632 19.6279Z" fill="#E01505"/>
<path fill-rule="evenodd" clip-rule="evenodd" d="M27.4899 44.6429C24.4102 43.5325 20.315 41.0871 16.6494 35.0197C25.7709 19.9831 40.1207 12.7271 45.3331 10.4895C47.5885 12.9804 48.7394 14.934 48.7394 14.934C57.1187 27.9279 31.5187 46.0888 27.4899 44.6429Z" fill="#E01505"/>
<path fill-rule="evenodd" clip-rule="evenodd" d="M98.4242 46.7677C101.641 46.1225 106.049 44.3045 110.564 38.8417C111.955 37.1653 113.356 35.1405 114.733 32.7089C118.77 25.5627 124.036 20.8847 127.599 18.2711C129.599 16.8114 129.711 13.8583 127.809 12.2769C108.421 -3.84434 92.8159 4.61606 85.7984 10.3639C83.1996 12.4966 81.7735 14.2591 81.7735 14.2591C71.5793 25.8814 94.2261 47.6059 98.4242 46.7677Z" fill="#FE5900"/>
<path fill-rule="evenodd" clip-rule="evenodd" d="M89.27 20.1177C91.7243 17.7297 99.6246 19.3518 99.6246 19.3518L96.2103 13.8167C96.2103 13.8167 101.22 12.4441 105.703 15.3576C105.703 15.3566 103.806 12.1225 101.868 10.4767C105.307 8.58944 121.075 12.8271 121.962 16.4957C122.338 18.0464 110.387 24.9769 104.758 34.0222C102.136 38.236 89.27 20.1187 89.27 20.1177Z" fill="#E01505"/>
<path fill-rule="evenodd" clip-rule="evenodd" d="M98.4242 46.7677C101.641 46.1225 106.049 44.3045 110.564 38.8417C103.748 22.6275 90.6229 13.3417 85.7984 10.3639C83.1996 12.4966 81.7735 14.2591 81.7735 14.2591C71.5793 25.8814 94.2261 47.606 98.4242 46.7677Z" fill="#E01505"/>
<path fill-rule="evenodd" clip-rule="evenodd" d="M115.129 69.1543C84.672 67.176 65.7649 68.795 65.7649 68.795C35.58 69.1711 11.9029 74.5993 11.9029 74.5993C11.9029 74.5993 9.37438 25.73 54.2357 10.7053C54.2357 10.7053 57.741 5.70264 65.1425 1.47095L60.5406 9.76511C60.796 9.5563 64.994 6.24793 70.0293 4.79613L68.623 10.3529C68.623 10.3529 106.449 12.4965 115.129 69.1543Z" fill="#FE5900"/>
<path fill-rule="evenodd" clip-rule="evenodd" d="M115.13 69.1542C115.13 69.1542 86.524 77.2663 66.7263 92.0386C66.7263 92.0376 44.9582 78.5231 11.9033 74.5992C11.9033 74.5992 35.4567 57.3182 65.7535 61.629C65.7535 61.629 91.0061 55.9327 115.13 69.1542Z" fill="#FFECDB"/>
<path fill-rule="evenodd" clip-rule="evenodd" d="M62.3885 59.5498L68.8588 59.3133C70.0009 59.2717 70.6194 60.6285 69.8435 61.4658L66.739 64.8157C66.261 65.3353 65.4475 65.366 64.928 64.886L61.5632 61.7716C60.727 60.9947 61.2455 59.5924 62.3885 59.5498Z" fill="#1D2031"/>
<path fill-rule="evenodd" clip-rule="evenodd" d="M70.6766 54.2157C70.6766 54.2157 68.1738 33.3056 71.3199 24.0881C71.3199 24.0871 78.5898 38.9396 96.7754 37.181C99.3069 40.718 100.898 47.8503 100.898 47.8503C95.666 46.4698 82.6265 46.1749 70.6766 54.2157Z" fill="#F07837"/>
<path fill-rule="evenodd" clip-rule="evenodd" d="M71.6506 52.5838C71.6506 52.5838 70.1691 35.7798 72.5115 26.7087C72.5115 26.7087 80.3425 38.2242 93.9669 37.76C96.1936 41.3554 97.2901 47.024 97.2901 47.024C97.2911 47.023 83.4926 45.6168 71.6506 52.5838Z" fill="white"/>
<path fill-rule="evenodd" clip-rule="evenodd" d="M73.1379 40.7893C73.1854 44.4183 74.182 47.8375 75.803 50.4927C82.1743 47.7702 88.5822 47.0607 92.7209 46.931C93.2969 44.4233 93.3612 41.6018 92.812 38.7724C92.7457 38.431 92.6715 38.0955 92.5903 37.766C85.1195 37.5799 79.5211 33.8311 76.1593 30.7494C74.2651 33.176 73.0855 36.7258 73.1379 40.7893Z" fill="#1D2031"/>
<path fill-rule="evenodd" clip-rule="evenodd" d="M90.4208 38.3736C90.3466 39.9412 89.2906 41.202 88.0654 41.1891C86.8373 41.1752 85.9011 39.8927 85.9753 38.3251C86.004 37.7461 86.1663 37.2098 86.4207 36.7634C87.6636 37.1435 88.9828 37.4344 90.3763 37.6046C90.4178 37.8491 90.4336 38.1074 90.4208 38.3736Z" fill="white"/>
<path fill-rule="evenodd" clip-rule="evenodd" d="M72.6807 27.5173C70.842 35.6145 71.7366 49.1151 71.9553 52.0009C82.4128 46.0749 94.3419 46.4748 96.8487 46.6371C96.5439 45.2575 95.5127 41.0298 93.7729 38.1183C82.0744 38.4171 74.5492 29.8993 72.6807 27.5173ZM71.3497 53.1697L71.2992 52.6145C71.2824 52.4462 69.8395 35.6461 72.173 26.6206L72.367 25.8695L72.8044 26.5108C72.8786 26.6226 80.3841 37.4215 93.1751 37.4215C93.4354 37.4215 93.6947 37.4176 93.954 37.4087L94.1608 37.4008L94.2677 37.5749C96.4983 41.1832 97.5909 46.7222 97.6364 46.9567L97.7275 47.4218L97.2574 47.3734C97.1169 47.3585 83.4312 46.0621 71.8267 52.8866L71.3497 53.1697Z" fill="#1D2031"/>
<path fill-rule="evenodd" clip-rule="evenodd" d="M58.3063 55.0341C58.3063 55.0341 59.7779 34.0261 56.1825 24.9739C56.1825 24.9739 49.6549 40.1668 31.403 39.3058C29.0447 42.9635 27.8076 50.1651 27.8076 50.1651C32.9666 48.5292 45.9764 47.5911 58.3063 55.0341Z" fill="#F07837"/>
<path fill-rule="evenodd" clip-rule="evenodd" d="M57.2541 53.4517C57.2541 53.4517 57.9102 36.5952 55.1185 27.6509C55.1185 27.6509 47.8644 39.5384 34.2361 39.7462C32.1915 43.4465 31.3701 49.1616 31.3701 49.1616C31.3701 49.1616 45.0855 47.0775 57.2541 53.4517Z" fill="white"/>
<path fill-rule="evenodd" clip-rule="evenodd" d="M55.1891 41.7443C55.3217 45.3724 54.4944 48.8371 53.005 51.5685C46.509 49.1627 40.0724 48.7698 35.9317 48.845C35.233 46.368 35.0282 43.5534 35.4369 40.7003C35.4854 40.3559 35.5438 40.0174 35.6091 39.6839C43.0621 39.1317 48.4695 35.1098 51.6759 31.8647C53.6869 34.1954 55.0407 37.6829 55.1891 41.7443Z" fill="#1D2031"/>
<path fill-rule="evenodd" clip-rule="evenodd" d="M51.1351 38.4112C51.0569 39.9798 50.0009 41.2406 48.7758 41.2268C47.5476 41.2129 46.6114 39.9313 46.6896 38.3628C46.7638 36.7942 47.8188 35.5344 49.0479 35.5482C50.2731 35.5611 51.2093 36.8437 51.1351 38.4112Z" fill="white"/>
<path fill-rule="evenodd" clip-rule="evenodd" d="M36.7934 48.4976C41.8485 48.4976 49.6498 49.2249 56.9206 52.8846C56.9988 49.9909 57.2255 36.4626 54.9948 28.4663C53.2422 30.9374 46.1534 39.8125 34.447 40.0935C32.8507 43.0872 32.0303 47.3615 31.7947 48.7539C32.5993 48.6628 34.3846 48.4976 36.7934 48.4976ZM57.5847 54.0217L57.0938 53.7634C45.1677 47.5178 31.5602 49.4882 31.4236 49.51L30.9585 49.5812L31.0238 49.1121C31.0575 48.8766 31.8739 43.2901 33.9274 39.576L34.0264 39.3978L34.2282 39.3939C47.5141 39.191 54.7474 27.5845 54.8167 27.4678L55.2214 26.8047L55.457 27.5459C58.2319 36.4457 57.6134 53.2963 57.6084 53.4655L57.5847 54.0217Z" fill="#1D2031"/>
<path fill-rule="evenodd" clip-rule="evenodd" d="M72.3888 17.5813C71.7534 18.3829 73.035 20.4493 75.2498 22.198C77.4597 23.9467 79.7695 24.7156 80.3999 23.915C81.0353 23.1134 79.7527 21.047 77.5389 19.2993C75.328 17.5496 73.0192 16.7817 72.3888 17.5813Z" fill="#1D2031"/>
<path fill-rule="evenodd" clip-rule="evenodd" d="M52.8669 18.2562C53.5636 19.0014 52.4582 21.1677 50.3967 23.0935C48.3353 25.0184 46.0997 25.9754 45.403 25.2302C44.7063 24.484 45.8107 22.3186 47.8732 20.3928C49.9346 18.467 52.1692 17.511 52.8669 18.2562Z" fill="#1D2031"/>
<path fill-rule="evenodd" clip-rule="evenodd" d="M73.2955 74.6557C72.9165 74.6557 72.578 74.3944 72.293 73.8739C71.2252 71.9154 69.4686 68.6911 66.178 68.6238C63.0982 68.5615 60.9082 70.9505 58.8052 73.2643C58.343 73.7749 57.7324 73.8689 57.2831 73.4958L56.2192 72.6022L56.723 72.0005L57.7908 72.8941C57.9432 73.0228 58.1619 72.8061 58.2233 72.7368C60.446 70.2934 62.7637 67.7727 66.1948 67.839C69.9386 67.9162 71.9061 71.5255 72.966 73.4642C73.1639 73.8264 73.2628 73.8729 73.3242 73.865L74.393 73.1613L74.8215 73.8165L73.6251 74.5953C73.5093 74.6349 73.4024 74.6557 73.2955 74.6557Z" fill="#1D2031"/>
<path fill-rule="evenodd" clip-rule="evenodd" d="M73.2002 51.7258C73.2002 51.7258 77.0766 44.5786 80.8452 44.1194C82.7057 43.8304 85.0106 45.9027 85.0106 45.9027C85.0106 45.9027 88.4823 43.7918 89.5382 43.8275C90.5942 43.8631 92.5982 46.9359 92.5982 46.9359L88.1072 48.0048C88.1072 48.0048 90.4289 51.7199 85.6202 52.1474C82.7958 52.3978 84.4495 48.5827 84.4495 48.5827L80.0703 49.7247C80.0703 49.7247 83.2164 53.8199 79.0727 54.9698C74.9281 56.1198 76.0623 50.8797 76.0623 50.8797L73.2002 51.7258Z" fill="#B8F3FF"/>
<path fill-rule="evenodd" clip-rule="evenodd" d="M56.6241 53.1895C56.6241 53.1895 55.6998 47.318 49.9312 48.369C49.9312 48.369 45.069 45.2694 42.3604 45.2249C39.6557 45.1794 34.6738 48.8896 34.6738 48.8896L42.7275 50.3315C42.7275 50.3315 39.1351 55.8527 43.2174 56.2762C47.3007 56.6998 45.7004 50.5225 45.7004 50.5225L50.0796 51.5002C50.0796 51.5002 49.4156 55.6241 51.8857 55.6448C54.3598 55.6666 54.4667 52.3761 54.4667 52.3761L56.6241 53.1895Z" fill="#B8F3FF"/>
<path fill-rule="evenodd" clip-rule="evenodd" d="M65.1258 101.469C65.1258 101.469 57.4156 94.1347 51.8647 100.341C45.7378 107.192 54.7841 121.401 66.442 127.042C66.442 127.042 91.3275 111.999 82.1733 100.905C75.8436 93.5706 69.6376 101.093 69.6376 101.093L71.8979 105.794L67.6375 113.879L70.3917 117.573L66.252 125.099L67.6375 117.573L65.3119 112.657L67.6375 105.606L65.1258 101.469Z" fill="#F31C1C"/>
<path fill-rule="evenodd" clip-rule="evenodd" d="M61.778 112.312C62.4747 114.916 57.9184 118.628 56.3508 119.647C47.0077 125.712 32.2818 129.184 25.7047 116.458C25.4652 115.999 25.3752 115.494 25.2515 115.026C26.0135 110.109 31.8939 110.278 31.8939 110.278C32.0513 111.674 32.5995 112.939 33.6258 114.026C41.3865 122.179 47.3164 113.624 55.5146 110.682C57.292 110.045 60.924 109.116 61.778 112.312Z" fill="#1D2031"/>
<path fill-rule="evenodd" clip-rule="evenodd" d="M72.0986 115.019C71.5266 117.711 75.2991 120.844 76.5936 121.663C84.3296 126.541 99.8471 125.859 102.841 112.657C102.205 107.838 97.3394 108.754 97.3394 108.754C97.2117 110.17 96.8742 111.596 95.9044 112.723C89.5707 120.085 84.0742 114.492 77.2863 112.593C75.8147 112.181 72.8082 111.714 72.0986 115.019Z" fill="#1D2031"/>
</svg>
