<svg width="142" height="199" viewBox="0 0 142 199" fill="none" xmlns="http://www.w3.org/2000/svg">
<path fill-rule="evenodd" clip-rule="evenodd" d="M20.6367 192.501C20.6367 195.915 42.4834 198.685 69.4419 198.685C96.3966 198.685 118.245 195.915 118.245 192.503C118.245 189.089 96.3966 186.318 69.4419 186.318C42.4852 186.318 20.6348 189.089 20.6367 192.501Z" fill="#D7E2FF"/>
<path fill-rule="evenodd" clip-rule="evenodd" d="M42.1658 171.077C42.1658 171.077 39.1742 172.917 35.9553 175.112C29.1232 172.226 24.8808 168.149 24.9541 163.698C24.9634 163.212 25.0273 162.729 25.1456 162.252C29.6284 158.979 35.6924 155.946 43.1386 153.459C38.2558 156.701 31.2679 161.865 31.728 164.62C32.4191 168.821 42.1658 171.077 42.1658 171.077Z" fill="#FFECDB"/>
<path fill-rule="evenodd" clip-rule="evenodd" d="M96.2876 176.344C88.9635 189.278 70.8052 193.674 56.0724 192.243C52.2807 191.873 46.1566 191.329 39.8203 190.187L43.6889 186.683C43.6889 186.683 27.9627 183.845 28.2049 181.691C28.4415 179.537 42.1659 171.077 42.1659 171.077C42.1659 171.077 32.4191 168.821 31.728 164.62C31.2698 161.865 38.2559 156.701 43.1387 153.459C55.9991 149.164 72.9743 146.499 93.0274 147.078C93.0274 147.078 106.588 158.165 96.2876 176.344Z" fill="#FE5900"/>
<path fill-rule="evenodd" clip-rule="evenodd" d="M25.1456 162.252C25.0273 162.729 24.9635 163.212 24.9541 163.698C24.8809 168.149 29.1232 172.226 35.9553 175.113C32.2914 177.605 28.3326 180.546 28.2049 181.691C27.9645 183.845 43.6889 186.683 43.6889 186.683L39.8202 190.187C28.2368 188.101 15.8252 184.024 16.1219 175.359C16.2947 170.316 19.7164 166.034 25.1456 162.252Z" fill="#F2D0AD"/>
<path fill-rule="evenodd" clip-rule="evenodd" d="M96.2876 176.344C88.9635 189.278 70.8052 193.674 56.0724 192.243C52.2807 191.873 46.1566 191.329 39.8203 190.187L43.6889 186.683C43.6889 186.683 27.9627 183.845 28.2049 181.691C28.3326 180.545 32.2914 177.605 35.9554 175.112C41.9837 177.668 50.0309 179.295 58.895 179.436C77.7932 179.736 93.2415 173.176 93.3917 164.789C93.5363 156.642 79.2261 149.763 61.096 149.095C70.5385 147.517 81.2524 146.742 93.0274 147.078C93.0274 147.078 106.588 158.165 96.2876 176.344Z" fill="#E01505"/>
<path fill-rule="evenodd" clip-rule="evenodd" d="M66.7731 88.126C66.3562 88.5316 58.3315 96.3422 53.8169 104.344C51.7717 107.967 50.444 111.631 50.8759 114.66C50.8759 114.658 45.826 114.504 45.334 119.115C42.5564 109.636 47.6157 102.021 53.522 96.7065C59.5222 91.3092 66.4013 88.2912 66.7731 88.126Z" fill="#FE5900"/>
<path fill-rule="evenodd" clip-rule="evenodd" d="M66.7735 88.126C66.3566 88.5316 58.332 96.3422 53.8173 104.344C54.3507 102.207 54.7488 99.1028 53.5225 96.7065C59.5226 91.3092 66.4017 88.2912 66.7735 88.126Z" fill="#E01505"/>
<path fill-rule="evenodd" clip-rule="evenodd" d="M88.0396 87.9607C88.4677 88.3325 96.6314 95.4107 101.405 103.052C103.533 106.453 104.966 109.935 104.72 112.94C104.72 112.94 109.415 112.241 110.051 116.654C112.348 107.017 107.174 99.8521 101.216 95.1027C95.1233 90.2481 88.4039 88.0809 88.0396 87.9607Z" fill="#FE5900"/>
<path fill-rule="evenodd" clip-rule="evenodd" d="M88.0396 87.9607C88.4677 88.3325 96.6314 95.4107 101.405 103.052C100.774 100.939 100.201 97.7882 101.216 95.1027C95.1233 90.2481 88.4039 88.0809 88.0396 87.9607Z" fill="#E01505"/>
<path fill-rule="evenodd" clip-rule="evenodd" d="M89.0183 164.288C89.0145 164.87 88.9488 166.021 88.7046 166.962C90.8099 167.071 93.0052 166.598 94.718 165.625C98.042 163.737 98.4458 159.583 96.9697 156.351C95.7095 153.6 93.2006 151.183 90.2315 150.406C88.3591 149.914 86.2764 150.156 84.3721 150.272C82.0171 150.423 79.6659 150.697 77.3428 151.097C73.2488 151.792 69.074 152.778 65.2054 154.31C62.3189 155.452 59.7329 157.465 59.4644 160.78C59.1864 164.243 60.7508 167.826 64.5819 167.845C66.0599 167.852 67.5191 167.522 68.9557 167.103C68.5388 166.425 68.3059 165.666 68.4111 164.943C68.6834 162.966 70.6741 161.011 72.4281 159.938C72.43 159.938 78.8396 162.921 86.2858 159.938C86.2858 159.938 89.0446 161.343 89.0183 164.288Z" fill="#E01505"/>
<path fill-rule="evenodd" clip-rule="evenodd" d="M60.7449 192.501H69.4738C69.4738 192.501 73.7293 185.051 72.0298 169.73H67.9827C67.9827 169.73 69.2597 178.668 64.5779 185.691C64.5779 185.691 59.4679 182.501 60.7449 192.501Z" fill="#1D2031"/>
<path fill-rule="evenodd" clip-rule="evenodd" d="M99.9422 192.501H91.2189C91.2189 192.501 86.9634 185.051 88.663 169.73H92.7082C92.7082 169.73 91.4312 178.668 96.113 185.691C96.1149 185.691 101.219 182.501 99.9422 192.501Z" fill="#1D2031"/>
<path fill-rule="evenodd" clip-rule="evenodd" d="M109.27 157.597C102.032 172.495 88.6628 169.73 88.6628 169.73C88.6628 169.73 85.4346 169.09 88.2628 165.262C88.8901 164.406 89.1436 163.525 89.153 162.68C89.1812 159.734 86.2853 157.174 86.2853 157.174C78.8391 160.152 72.4276 157.174 72.4276 157.174C70.6736 158.246 69.1149 160.325 68.8426 162.297C68.6735 163.471 68.9552 164.603 69.8961 165.475C72.4521 167.813 72.0295 169.73 72.0295 169.73C67.9824 174.412 56.7727 169.567 51.3848 164.288C44.3517 157.392 43.2343 151.196 44.179 146.432C45.3752 140.394 49.858 136.64 49.858 136.64C47.4072 119.887 53.7755 104.735 58.677 96.006C61.4358 91.0951 63.7269 88.218 63.7269 88.218H90.3455C92.3306 90.0059 94.0771 91.9815 95.6095 94.083C107.535 110.444 106.506 134.189 106.506 134.189C106.506 134.189 110.665 137.731 111.679 144.24C112.235 147.827 111.843 152.31 109.27 157.597Z" fill="#FE5900"/>
<path fill-rule="evenodd" clip-rule="evenodd" d="M95.6097 94.083C88.8133 99.7432 88.203 109.432 82.2441 109.995C76.2853 110.562 65.2183 98.0756 58.6772 96.006C61.436 91.0951 63.7272 88.218 63.7272 88.218H90.3458C92.3308 90.0059 94.0773 91.9815 95.6097 94.083Z" fill="#E01505"/>
<path fill-rule="evenodd" clip-rule="evenodd" d="M102.778 129.46C102.752 130.016 102.72 130.574 102.679 131.139C101.229 151.097 85.7955 156.678 80.2573 157.242C74.7248 157.814 58.1234 154.406 54.1496 132.129C54.0688 131.684 54.0031 131.243 53.9355 130.798C53.6031 128.503 53.4622 126.202 53.4847 123.947C53.6031 113.31 57.2689 103.43 60.5047 96.7834C63.0738 91.4838 65.3649 88.2161 65.3649 88.2161H88.7721C90.7853 90.5711 92.6089 92.943 94.2089 95.3975C99.1555 102.934 102.087 111.154 102.742 121.118C102.921 123.765 102.934 126.542 102.778 129.46Z" fill="#FFECDB"/>
<path fill-rule="evenodd" clip-rule="evenodd" d="M80.5484 141.258C77.0835 141.613 65.1733 140.208 61.1994 131.22C68.3508 131.22 72.6026 123.774 72.6026 123.774C80.3399 136.694 86.3532 123.428 86.3532 123.428C88.4134 125.338 94.16 129.716 96.346 129.566C94.3966 138.903 83.6489 140.941 80.5484 141.258ZM102.778 129.402C102.81 128.816 102.833 128.244 102.848 127.671C102.851 127.524 102.861 127.38 102.864 127.233C102.896 125.857 102.893 124.506 102.848 123.188C102.842 123.015 102.829 122.852 102.825 122.679C102.801 122.2 102.778 121.723 102.752 121.256C102.746 121.21 102.746 121.165 102.742 121.118C102.624 119.391 102.448 117.714 102.196 116.091C101.991 117.796 101.674 119.391 101.274 120.882L87.1044 118.591L74.3247 119.115L56.1458 123.333C55.3326 121.301 54.6359 119.051 54.1176 116.542C53.7401 118.946 53.5166 121.425 53.4903 123.947V124.056C53.4866 124.296 53.4941 124.542 53.4941 124.788C53.4997 125.15 53.4997 125.52 53.5128 125.889C53.5222 126.17 53.5354 126.456 53.5485 126.743C53.5673 127.066 53.5861 127.389 53.6086 127.71C53.6312 128.02 53.6574 128.33 53.6856 128.634C53.7119 128.952 53.7495 129.265 53.7851 129.579C53.8171 129.879 53.8528 130.174 53.8941 130.475C53.9091 130.58 53.9222 130.689 53.9354 130.798C54.0124 131.243 54.0725 131.684 54.1495 132.129C58.1271 154.406 74.7247 157.811 80.2573 157.242C85.7955 156.678 101.229 151.097 102.675 131.139C102.716 130.574 102.746 130.016 102.774 129.46L102.778 129.402Z" fill="#F2D0AD"/>
<path fill-rule="evenodd" clip-rule="evenodd" d="M94.2146 95.3938C88.6952 101.125 87.7675 109.477 82.2443 109.995C76.8019 110.513 67.1246 100.171 60.501 96.7835C63.0738 91.4876 65.3593 88.218 65.3593 88.218H88.7722C90.791 90.5674 92.6146 92.943 94.2146 95.3938Z" fill="#F2D0AD"/>
<path fill-rule="evenodd" clip-rule="evenodd" d="M72.0295 169.73C67.9824 174.412 56.7727 169.567 51.3848 164.288C44.3517 157.392 43.2343 151.196 44.179 146.432C52.6168 166.776 63.3495 165.007 68.8426 162.297C68.6736 163.471 68.9552 164.603 69.8961 165.475C72.4521 167.813 72.0295 169.73 72.0295 169.73Z" fill="#E01505"/>
<path fill-rule="evenodd" clip-rule="evenodd" d="M109.27 157.596C102.033 172.495 88.6631 169.73 88.6631 169.73C88.6631 169.73 85.4349 169.09 88.2631 165.262C88.8904 164.406 89.1439 163.525 89.1533 162.68C103.229 168.053 109.475 152.22 111.68 144.24C112.236 147.827 111.843 152.31 109.27 157.596Z" fill="#E01505"/>
<path fill-rule="evenodd" clip-rule="evenodd" d="M33.0184 56.2284C29.4821 55.4096 24.6595 53.2537 19.8349 47.0582C18.3494 45.1577 16.8621 42.8703 15.4216 40.134C11.1793 32.0906 5.50211 26.7402 1.63721 23.7317C-0.526228 22.0509 -0.554397 18.7776 1.60529 17.0874C23.5946 -0.133779 40.5979 9.74068 48.1794 16.3305C50.9907 18.7776 52.5082 20.7739 52.5082 20.7739C63.423 33.9742 37.6382 57.2932 33.0184 56.2284Z" fill="#FE5900"/>
<path fill-rule="evenodd" clip-rule="evenodd" d="M44.0215 27.0182C41.3792 24.2951 32.5789 25.835 32.5789 25.835L36.5377 19.8161C36.5377 19.8161 31.0371 18.1353 25.9778 21.2152C25.9778 21.2152 28.1863 17.6958 30.3817 15.9343C26.6407 13.7352 9.03837 17.9156 7.93787 21.9476C7.474 23.6528 20.481 31.715 26.4173 41.9106C29.1873 46.6619 44.0196 27.0182 44.0215 27.0182Z" fill="#E01505"/>
<path fill-rule="evenodd" clip-rule="evenodd" d="M33.0184 56.2284C29.4822 55.4096 24.6595 53.2537 19.835 47.0582C27.9047 29.3281 42.7427 19.4724 48.1794 16.3306C50.9908 18.7776 52.5082 20.7739 52.5082 20.7739C63.4231 33.9743 37.6383 57.2932 33.0184 56.2284Z" fill="#E01505"/>
<path fill-rule="evenodd" clip-rule="evenodd" d="M111.321 49.3023C114.771 48.1718 119.381 45.5971 123.637 38.9978C124.949 36.9734 126.226 34.562 127.419 31.7075C130.933 23.3204 136.11 17.4873 139.688 14.1464C141.697 12.2816 141.434 9.01762 139.134 7.52649C115.702 -7.67394 99.6453 3.66911 92.6761 10.9069C90.0958 13.5943 88.7587 15.7183 88.7587 15.7183C79.0626 29.8332 106.81 50.7728 111.321 49.3023Z" fill="#FE5900"/>
<path fill-rule="evenodd" clip-rule="evenodd" d="M97.7695 21.1851C100.156 18.2367 109.062 18.9898 109.062 18.9898L104.579 13.3464C104.579 13.3464 109.911 11.183 115.222 13.8009C115.222 13.8009 112.713 10.4919 110.365 8.93313C113.903 6.40912 131.801 9.01201 133.256 12.9295C133.87 14.5878 121.631 23.7711 116.621 34.455C114.29 39.4317 97.7695 21.1851 97.7695 21.1851Z" fill="#E01505"/>
<path fill-rule="evenodd" clip-rule="evenodd" d="M111.321 49.3023C114.771 48.1718 119.381 45.5971 123.637 38.9978C114.025 22.0546 98.374 13.5529 92.6761 10.9069C90.0958 13.5943 88.7587 15.7183 88.7587 15.7183C79.0626 29.8332 106.81 50.7728 111.321 49.3023Z" fill="#E01505"/>
<path fill-rule="evenodd" clip-rule="evenodd" d="M132.616 71.7443C98.8608 73.5453 78.2706 77.797 78.2706 77.797C45.1166 82.1521 19.7863 91.2134 19.7863 91.2134C19.7863 91.2134 10.6217 37.7902 58.0052 15.4065C58.0052 15.4065 61.2053 9.44577 68.7924 3.82495L64.8148 13.5492C65.0739 13.2844 69.2562 9.09834 74.6028 6.84476L73.784 13.1398C73.784 13.1398 115.671 10.5575 132.616 71.7443Z" fill="#FE5900"/>
<path fill-rule="evenodd" clip-rule="evenodd" d="M132.616 71.7443C132.616 71.7443 102.215 84.4019 82.3663 103.234C82.3663 103.234 56.6548 91.2134 19.7861 91.2134C19.7861 91.2134 44.384 77.0121 78.2704 77.7971C78.2704 77.7971 99.5142 67.5677 132.616 71.7443Z" fill="#FFECDB"/>
<path fill-rule="evenodd" clip-rule="evenodd" d="M74.0301 74.6683L81.1176 73.5641C82.3665 73.3688 83.2266 74.7791 82.4848 75.8007L79.5082 79.8929C79.0443 80.5258 78.1579 80.6666 77.525 80.2065L73.416 77.2186C72.3925 76.4749 72.7793 74.8636 74.0301 74.6683Z" fill="#1D2031"/>
<path fill-rule="evenodd" clip-rule="evenodd" d="M83.9398 67.7329C83.9398 67.7329 75.7743 31.6455 90.8809 28.1355C100.291 25.9495 112.288 37.0822 117.426 50.0929C119.526 55.4095 119.299 61.0867 114.412 63.5112C108.502 66.4446 98.7271 69.1395 83.9398 67.7329Z" fill="#E01505"/>
<path fill-rule="evenodd" clip-rule="evenodd" d="M84.2085 68.5949C84.2085 68.5949 76.9576 35.931 91.1458 31.9948C99.9611 29.5478 110.106 40.1659 113.558 51.9841C114.904 56.5852 114.249 61.4604 110.016 63.7084C104.925 66.4127 96.6558 69.0813 84.2085 68.5949Z" fill="white"/>
<path fill-rule="evenodd" clip-rule="evenodd" d="M83.1494 62.3881C87.6923 66.1253 93.7319 67.6127 99.4917 65.8286C107.374 63.3872 112.226 55.5954 111.768 47.1933C107.332 37.486 98.7443 29.8858 91.1459 31.9947C80.8846 34.8418 81.8367 52.7127 83.1494 62.3881Z" fill="#E01505"/>
<path fill-rule="evenodd" clip-rule="evenodd" d="M82.5953 57.2594C86.3944 62.1008 92.62 64.4126 98.4868 62.5948C106.243 60.1928 110.438 51.4958 107.862 43.1707C105.512 35.5837 98.346 30.9244 91.2246 31.9742C91.1983 31.9817 91.172 31.9873 91.1458 31.9948C82.5108 34.3893 81.8159 47.4225 82.5953 57.2594Z" fill="#1D2031"/>
<path fill-rule="evenodd" clip-rule="evenodd" d="M84.5674 68.1686C97.0691 68.6024 105.184 65.776 109.811 63.3196C113.389 61.4191 114.63 57.2274 113.135 52.108C109.843 40.8363 100.051 29.9797 91.2643 32.4173C78.3888 35.9892 83.8631 64.7375 84.5674 68.1686ZM87.0858 69.0925C86.1449 69.0925 85.1815 69.0737 84.1899 69.0343L83.8537 69.0212L83.7767 68.6906C83.4819 67.3404 76.6066 35.5723 91.0276 31.5703C100.311 28.9937 110.57 40.1959 113.98 51.8601C115.603 57.4114 114.198 61.9862 110.221 64.0971C105.824 66.4314 98.3424 69.0925 87.0858 69.0925Z" fill="#1D2031"/>
<path fill-rule="evenodd" clip-rule="evenodd" d="M101.533 39.4034C102.883 42.3143 102.16 45.5952 99.9272 46.7313C97.6905 47.8694 94.7872 46.4309 93.4369 43.52C92.0904 40.6091 92.8097 37.3283 95.0463 36.1921C97.2774 35.054 100.188 36.4926 101.533 39.4034Z" fill="white"/>
<path fill-rule="evenodd" clip-rule="evenodd" d="M91.0859 55.8152C91.3282 57.218 90.4906 58.5739 89.2135 58.8425C87.9365 59.1092 86.7046 58.189 86.4585 56.7861C86.2182 55.3832 87.0576 54.0292 88.3365 53.7588C89.6136 53.4902 90.8455 54.4123 91.0859 55.8152Z" fill="white"/>
<path fill-rule="evenodd" clip-rule="evenodd" d="M76.2441 87.9644C76.6611 87.3653 77.1756 86.9296 77.7709 86.5616C78.3625 86.1935 79.0386 85.9475 79.7522 85.8235C80.1072 85.7521 80.4715 85.7615 80.8339 85.754C81.1945 85.8047 81.5626 85.8198 81.9025 85.9437C82.6086 86.1202 83.2265 86.5109 83.7317 86.9747L83.2678 87.7841C82.6631 87.679 82.1354 87.5325 81.5983 87.5081C81.0668 87.4611 80.5485 87.4705 80.0264 87.5569C79.5025 87.6301 78.9804 87.7729 78.4489 87.955C77.9306 88.1391 77.3803 88.3832 76.862 88.6142L76.2441 87.9644Z" fill="#1D2031"/>
<path fill-rule="evenodd" clip-rule="evenodd" d="M84.2817 24.742C83.9437 25.8218 86.0846 27.4557 89.0631 28.3928C92.0453 29.3318 94.7365 29.2191 95.0726 28.1411C95.4144 27.0632 93.2735 25.4275 90.295 24.4903C87.3128 23.5513 84.6216 23.664 84.2817 24.742Z" fill="#1D2031"/>
<path fill-rule="evenodd" clip-rule="evenodd" d="M68.9236 69.2391C68.9236 69.2391 67.2559 32.2765 51.7588 32.8869C42.1078 33.2662 33.4784 47.1765 31.9648 61.0811C31.3469 66.7658 33.069 72.1781 38.4194 73.2261C44.8985 74.4918 55.0358 74.5068 68.9236 69.2391Z" fill="#E01505"/>
<path fill-rule="evenodd" clip-rule="evenodd" d="M68.8975 70.1404C68.8975 70.1404 67.2467 36.7235 52.5271 36.6766C43.3794 36.6484 36.4008 49.5727 36.1961 61.8829C36.1191 66.6755 38.0384 71.2052 42.7108 72.2532C48.3391 73.5152 57.0173 73.902 68.8975 70.1404Z" fill="white"/>
<path fill-rule="evenodd" clip-rule="evenodd" d="M68.274 63.8717C64.8843 68.6775 59.4494 71.7123 53.421 71.5151C45.1804 71.2447 38.4385 65.0135 36.6562 56.7879C38.369 46.2524 44.6415 36.6521 52.5271 36.6766C63.1716 36.7104 66.9801 54.1926 68.274 63.8717Z" fill="#E01505"/>
<path fill-rule="evenodd" clip-rule="evenodd" d="M67.4532 58.7824C65.07 64.4558 59.6745 68.3301 53.5354 68.1292C45.4206 67.8644 39.0749 60.5872 39.3603 51.8771C39.6214 43.9351 45.3004 37.5461 52.4499 36.6785C52.4743 36.6785 52.5006 36.6766 52.5269 36.6766C61.483 36.7048 65.6015 49.0883 67.4532 58.7824Z" fill="#1D2031"/>
<path fill-rule="evenodd" clip-rule="evenodd" d="M52.495 37.118C43.3886 37.118 36.8326 50.1625 36.6373 61.8905C36.5471 67.224 38.8571 70.9368 42.8121 71.8251C47.9221 72.9706 56.4989 73.5453 68.4372 69.825C68.2062 66.3301 65.8832 37.1574 52.5269 37.118H52.495ZM51.1259 73.5697C47.6667 73.5697 44.8253 73.1772 42.6168 72.6833C38.2242 71.6973 35.6607 67.6578 35.7565 61.8755C35.9612 49.738 42.8797 36.2372 52.495 36.2372H52.5269C67.4964 36.2823 69.2654 68.7376 69.333 70.1198L69.3518 70.4579L69.0288 70.5612C61.8906 72.8204 55.9129 73.5697 51.1259 73.5697Z" fill="#1D2031"/>
<path fill-rule="evenodd" clip-rule="evenodd" d="M50.7449 46.7539C51.0716 49.9446 53.3684 52.3991 55.868 52.2357C58.3733 52.0723 60.1367 49.353 59.8099 46.1623C59.4813 42.9716 57.1901 40.5171 54.6868 40.6804C52.1853 40.8438 50.4162 43.5632 50.7449 46.7539Z" fill="white"/>
<path fill-rule="evenodd" clip-rule="evenodd" d="M41.7212 62.206C41.8621 63.6221 43.0302 64.7075 44.3297 64.6287C45.6349 64.5498 46.5796 63.3366 46.4387 61.9187C46.3035 60.5008 45.1354 59.4172 43.8302 59.4961C42.5306 59.575 41.5841 60.7882 41.7212 62.206Z" fill="white"/>
<path fill-rule="evenodd" clip-rule="evenodd" d="M57.2274 27.8708C57.8396 28.8192 56.2076 30.962 53.5803 32.654C50.953 34.348 48.3294 34.9508 47.7153 34.0005C47.1031 33.0503 48.7388 30.9075 51.3624 29.2154C53.9897 27.5215 56.6133 26.9205 57.2274 27.8708Z" fill="#1D2031"/>
<path fill-rule="evenodd" clip-rule="evenodd" d="M79.2265 126.228C76.1128 128.001 72.693 122.183 72.693 122.183C67.5605 128.133 50.3769 133.053 45.7758 120.456C45.6124 120.001 45.4622 119.55 45.3345 119.115C45.8265 114.504 50.8764 114.66 50.8764 114.66C51.0586 115.969 51.5713 117.156 52.4952 118.178C59.4325 125.819 66.7886 114.651 74.2517 114.377C81.7167 114.095 83.1759 123.979 79.2265 126.228Z" fill="#1D2031"/>
<path fill-rule="evenodd" clip-rule="evenodd" d="M81.0477 126.116C83.7764 127.412 86.0582 122.024 86.0582 122.024C90.8997 126.878 106.061 129.921 109.698 117.982C109.834 117.531 109.952 117.086 110.051 116.654C109.417 112.241 104.72 112.94 104.72 112.94C104.62 114.222 104.211 115.413 103.424 116.474C97.6999 124.174 90.4396 114.581 83.9849 115.077C77.688 115.546 77.6016 124.478 81.0477 126.116Z" fill="#1D2031"/>
</svg>
