<svg width="21" height="21" viewBox="0 0 21 21" fill="none" xmlns="http://www.w3.org/2000/svg">
<path d="M20.125 9.625H18.375V7.87499C18.375 7.39174 17.9832 7 17.5 7C17.0167 7 16.625 7.39174 16.625 7.87499V9.625H14.875C14.3917 9.625 14 10.0167 14 10.5C14 10.9832 14.3917 11.375 14.875 11.375H16.625V13.125C16.625 13.6082 17.0167 14 17.5 14C17.9832 14 18.375 13.6082 18.375 13.125V11.375H20.125C20.6082 11.375 21 10.9832 21 10.5C21 10.0167 20.6082 9.625 20.125 9.625Z" fill="#3A4060"/>
<path d="M7.875 10.5C10.7745 10.5 13.125 8.1495 13.125 5.25C13.125 2.3505 10.7745 0 7.875 0C4.9755 0 2.625 2.3505 2.625 5.25C2.625 8.1495 4.9755 10.5 7.875 10.5Z" fill="#3A4060"/>
<path d="M7.875 12.25C3.52775 12.2548 0.00483984 15.7778 0 20.125C0 20.6082 0.39174 21 0.874986 21H14.875C15.3582 21 15.75 20.6082 15.75 20.125C15.7452 15.7778 12.2222 12.2548 7.875 12.25Z" fill="#3A4060"/>
</svg>
