<svg width="20" height="20" viewBox="0 0 20 20" fill="none" xmlns="http://www.w3.org/2000/svg">
<path d="M10.0002 0.833252C8.18717 0.833252 6.41489 1.37087 4.90744 2.37811C3.39999 3.38536 2.22507 4.817 1.53127 6.49199C0.837468 8.16698 0.655937 10.0101 1.00964 11.7882C1.36333 13.5664 2.23637 15.1997 3.51835 16.4817C4.80034 17.7637 6.43368 18.6368 8.21184 18.9904C9.99 19.3441 11.8331 19.1626 13.5081 18.4688C15.1831 17.775 16.6147 16.6001 17.622 15.0926C18.6292 13.5852 19.1668 11.8129 19.1668 9.99992C19.164 7.56965 18.1973 5.23974 16.4788 3.52127C14.7603 1.80281 12.4304 0.836119 10.0002 0.833252V0.833252ZM10.0002 17.4999C8.51681 17.4999 7.06676 17.0601 5.83339 16.2359C4.60002 15.4118 3.63873 14.2405 3.07107 12.87C2.50341 11.4996 2.35489 9.9916 2.64428 8.53674C2.93367 7.08188 3.64797 5.74551 4.69687 4.69662C5.74576 3.64772 7.08213 2.93342 8.53699 2.64403C9.99185 2.35464 11.4998 2.50316 12.8703 3.07082C14.2407 3.63848 15.4121 4.59977 16.2362 5.83314C17.0603 7.06651 17.5002 8.51656 17.5002 9.99992C17.4977 11.9883 16.7068 13.8945 15.3008 15.3005C13.8948 16.7065 11.9885 17.4975 10.0002 17.4999V17.4999Z" fill="#6E7288"/>
<path d="M9.99984 5C9.77883 5 9.56686 5.0878 9.41058 5.24408C9.2543 5.40036 9.1665 5.61232 9.1665 5.83333V11.6667C9.1665 11.8877 9.2543 12.0996 9.41058 12.2559C9.56686 12.4122 9.77883 12.5 9.99984 12.5C10.2209 12.5 10.4328 12.4122 10.5891 12.2559C10.7454 12.0996 10.8332 11.8877 10.8332 11.6667V5.83333C10.8332 5.61232 10.7454 5.40036 10.5891 5.24408C10.4328 5.0878 10.2209 5 9.99984 5Z" fill="#6E7288"/>
<path d="M9.99984 14.9999C10.4601 14.9999 10.8332 14.6268 10.8332 14.1666C10.8332 13.7064 10.4601 13.3333 9.99984 13.3333C9.5396 13.3333 9.1665 13.7064 9.1665 14.1666C9.1665 14.6268 9.5396 14.9999 9.99984 14.9999Z" fill="#6E7288"/>
</svg>
