<svg width="20" height="20" viewBox="0 0 20 20" fill="none" xmlns="http://www.w3.org/2000/svg">
<path d="M9.99992 0.833252C8.18693 0.833252 6.41465 1.37087 4.9072 2.37811C3.39974 3.38536 2.22483 4.817 1.53103 6.49199C0.837224 8.16698 0.655693 10.0101 1.00939 11.7882C1.36309 13.5664 2.23613 15.1997 3.51811 16.4817C4.80009 17.7637 6.43344 18.6368 8.21159 18.9904C9.98975 19.3441 11.8329 19.1626 13.5079 18.4688C15.1828 17.775 16.6145 16.6001 17.6217 15.0926C18.629 13.5852 19.1666 11.8129 19.1666 9.99992C19.1637 7.56965 18.197 5.23974 16.4786 3.52127C14.7601 1.80281 12.4302 0.836119 9.99992 0.833252ZM9.99992 17.4999C8.51656 17.4999 7.06651 17.0601 5.83315 16.2359C4.59978 15.4118 3.63848 14.2405 3.07083 12.87C2.50317 11.4996 2.35464 9.9916 2.64403 8.53674C2.93342 7.08188 3.64773 5.74551 4.69662 4.69662C5.74552 3.64772 7.08189 2.93342 8.53675 2.64403C9.9916 2.35464 11.4996 2.50316 12.87 3.07082C14.2405 3.63848 15.4118 4.59977 16.2359 5.83314C17.0601 7.06651 17.4999 8.51656 17.4999 9.99992C17.4975 11.9883 16.7065 13.8945 15.3005 15.3005C13.8945 16.7065 11.9883 17.4975 9.99992 17.4999Z" fill="#3A4060"/>
<path d="M9.99996 5C9.77895 5 9.56699 5.0878 9.41071 5.24408C9.25442 5.40036 9.16663 5.61232 9.16663 5.83333V11.6667C9.16663 11.8877 9.25442 12.0996 9.41071 12.2559C9.56699 12.4122 9.77895 12.5 9.99996 12.5C10.221 12.5 10.4329 12.4122 10.5892 12.2559C10.7455 12.0996 10.8333 11.8877 10.8333 11.6667V5.83333C10.8333 5.61232 10.7455 5.40036 10.5892 5.24408C10.4329 5.0878 10.221 5 9.99996 5Z" fill="#3A4060"/>
<path d="M9.99996 14.9999C10.4602 14.9999 10.8333 14.6268 10.8333 14.1666C10.8333 13.7064 10.4602 13.3333 9.99996 13.3333C9.53972 13.3333 9.16663 13.7064 9.16663 14.1666C9.16663 14.6268 9.53972 14.9999 9.99996 14.9999Z" fill="#3A4060"/>
</svg>
