<svg width="5" height="18" viewBox="0 0 5 18" fill="none" xmlns="http://www.w3.org/2000/svg">
<path d="M0.5 9C0.5 9.39556 0.617298 9.78224 0.837061 10.1111C1.05682 10.44 1.36918 10.6964 1.73463 10.8478C2.10009 10.9991 2.50222 11.0387 2.89018 10.9616C3.27814 10.8844 3.63451 10.6939 3.91421 10.4142C4.19392 10.1345 4.3844 9.77814 4.46157 9.39018C4.53874 9.00222 4.49913 8.60008 4.34776 8.23463C4.19638 7.86918 3.94004 7.55682 3.61114 7.33706C3.28224 7.1173 2.89556 7 2.5 7C1.96957 7 1.46086 7.21071 1.08579 7.58579C0.710714 7.96086 0.5 8.46957 0.5 9ZM0.5 16C0.5 16.3956 0.617298 16.7822 0.837061 17.1111C1.05682 17.44 1.36918 17.6964 1.73463 17.8478C2.10009 17.9991 2.50222 18.0387 2.89018 17.9616C3.27814 17.8844 3.63451 17.6939 3.91421 17.4142C4.19392 17.1345 4.3844 16.7781 4.46157 16.3902C4.53874 16.0022 4.49913 15.6001 4.34776 15.2346C4.19638 14.8692 3.94004 14.5568 3.61114 14.3371C3.28224 14.1173 2.89556 14 2.5 14C1.96957 14 1.46086 14.2107 1.08579 14.5858C0.710714 14.9609 0.5 15.4696 0.5 16ZM0.5 2C0.5 2.39556 0.617298 2.78224 0.837061 3.11114C1.05682 3.44004 1.36918 3.69638 1.73463 3.84776C2.10009 3.99913 2.50222 4.03874 2.89018 3.96157C3.27814 3.8844 3.63451 3.69392 3.91421 3.41421C4.19392 3.13451 4.3844 2.77814 4.46157 2.39018C4.53874 2.00222 4.49913 1.60008 4.34776 1.23463C4.19638 0.869181 3.94004 0.556824 3.61114 0.337061C3.28224 0.117298 2.89556 0 2.5 0C1.96957 0 1.46086 0.210714 1.08579 0.585787C0.710714 0.960859 0.5 1.46957 0.5 2Z" fill="#333E63"/>
</svg>
