<svg width="20" height="20" viewBox="0 0 20 20" fill="none" xmlns="http://www.w3.org/2000/svg">
<g opacity="0.7">
<path d="M10.0002 0.833252C8.18717 0.833252 6.41489 1.37087 4.90744 2.37811C3.39999 3.38536 2.22507 4.817 1.53127 6.49199C0.837468 8.16698 0.655937 10.0101 1.00964 11.7882C1.36333 13.5664 2.23637 15.1997 3.51835 16.4817C4.80034 17.7637 6.43368 18.6368 8.21184 18.9904C9.99 19.3441 11.8331 19.1626 13.5081 18.4688C15.1831 17.775 16.6147 16.6001 17.622 15.0926C18.6292 13.5852 19.1668 11.8129 19.1668 9.99992C19.164 7.56965 18.1973 5.23974 16.4788 3.52127C14.7604 1.80281 12.4304 0.836119 10.0002 0.833252ZM10.0002 17.4999C8.51681 17.4999 7.06676 17.0601 5.83339 16.2359C4.60002 15.4118 3.63873 14.2405 3.07107 12.87C2.50341 11.4996 2.35489 9.9916 2.64428 8.53674C2.93367 7.08188 3.64797 5.74551 4.69687 4.69662C5.74576 3.64772 7.08213 2.93342 8.53699 2.64403C9.99185 2.35464 11.4998 2.50316 12.8703 3.07082C14.2407 3.63848 15.4121 4.59977 16.2362 5.83314C17.0603 7.06651 17.5002 8.51656 17.5002 9.99992C17.498 11.9884 16.7071 13.8947 15.301 15.3008C13.895 16.7068 11.9886 17.4977 10.0002 17.4999Z" fill="#3A4060"/>
<path d="M13.603 7.30248L9.19133 11.3466L7.25549 9.41081C7.17862 9.33122 7.08667 9.26774 6.985 9.22406C6.88333 9.18039 6.77398 9.1574 6.66333 9.15644C6.55268 9.15548 6.44295 9.17656 6.34053 9.21846C6.23812 9.26036 6.14508 9.32224 6.06683 9.40048C5.98859 9.47873 5.92671 9.57177 5.88481 9.67418C5.84291 9.7766 5.82182 9.88633 5.82279 9.99698C5.82375 10.1076 5.84674 10.217 5.89041 10.3187C5.93408 10.4203 5.99757 10.5123 6.07716 10.5891L8.57716 13.0891C8.72902 13.241 8.93366 13.3284 9.14839 13.3331C9.36312 13.3377 9.57136 13.2593 9.72966 13.1141L14.7297 8.53081C14.8925 8.38141 14.9894 8.17342 14.9989 7.95259C15.0085 7.73177 14.9299 7.5162 14.7805 7.35331C14.6311 7.19043 14.4231 7.09356 14.2023 7.08403C13.9814 7.0745 13.7659 7.15307 13.603 7.30248Z" fill="#3A4060"/>
</g>
</svg>
