<svg width="21" height="21" viewBox="0 0 21 21" fill="none" xmlns="http://www.w3.org/2000/svg">
<g clip-path="url(#clip0_1201_4374)">
<path d="M12.25 6.125V0.4025C13.0594 0.708168 13.7946 1.1824 14.4069 1.79375L17.4554 4.844C18.0674 5.45552 18.542 6.19053 18.8475 7H13.125C12.8929 7 12.6704 6.90781 12.5063 6.74371C12.3422 6.57962 12.25 6.35706 12.25 6.125ZM19.25 9.17437V16.625C19.2486 17.7849 18.7872 18.8969 17.9671 19.717C17.1469 20.5372 16.0349 20.9986 14.875 21H6.125C4.96511 20.9986 3.85311 20.5372 3.03294 19.717C2.21277 18.8969 1.75139 17.7849 1.75 16.625V4.375C1.75139 3.2151 2.21277 2.10311 3.03294 1.28294C3.85311 0.462771 4.96511 0.00138937 6.125 0L10.0756 0C10.2183 0 10.3591 0.011375 10.5 0.021V6.125C10.5 6.82119 10.7766 7.48887 11.2688 7.98115C11.7611 8.47343 12.4288 8.74999 13.125 8.74999H19.229C19.2386 8.89087 19.25 9.03174 19.25 9.17437ZM14.6335 12.5221C14.4735 12.3542 14.2535 12.2567 14.0217 12.2509C13.7898 12.2452 13.5652 12.3317 13.3971 12.4915L10.2471 15.4936C10.163 15.5783 10.0624 15.6448 9.9515 15.6892C9.84065 15.7335 9.72191 15.7547 9.60257 15.7514C9.48323 15.7481 9.36582 15.7204 9.25757 15.6701C9.14932 15.6197 9.05252 15.5478 8.97313 15.4586L7.58275 14.2214C7.49692 14.1448 7.39685 14.086 7.28826 14.0481C7.17967 14.0103 7.06469 13.9942 6.94989 14.0007C6.71802 14.014 6.50093 14.1189 6.34638 14.2922C6.26985 14.3781 6.21098 14.4781 6.17312 14.5867C6.13527 14.6953 6.11917 14.8103 6.12575 14.9251C6.13904 15.157 6.2439 15.3741 6.41725 15.5286L7.76825 16.7309C8.25797 17.2207 8.92143 17.4971 9.61406 17.4999C10.3067 17.5027 10.9724 17.2316 11.466 16.7457L14.6029 13.7585C14.7708 13.5985 14.8683 13.3785 14.8741 13.1466C14.8798 12.9148 14.7933 12.6902 14.6335 12.5221V12.5221Z" fill="#8F92A2"/>
</g>
<defs>
<clipPath id="clip0_1201_4374">
<rect width="21" height="21" fill="white"/>
</clipPath>
</defs>
</svg>
