<svg width="17" height="17" viewBox="0 0 17 17" fill="none" xmlns="http://www.w3.org/2000/svg">
<path d="M16.9717 14.4484C17.089 13.6959 16.8378 12.9329 16.2965 12.3973L14.6857 10.7865C13.9865 10.0884 12.9316 9.88896 12.0258 10.2836C11.6032 10.4657 11.2176 10.7242 10.8886 11.0461C10.4939 11.4424 9.0415 10.8684 7.58599 9.41447C6.13049 7.96054 5.55959 6.50737 5.9513 6.11182C6.27314 5.78278 6.53163 5.3973 6.7138 4.97464C7.10989 4.06959 6.9116 3.01429 6.21398 2.31476L4.60321 0.703992C4.06815 0.16167 3.30464 -0.0896647 2.55208 0.0287914C1.79108 0.140555 1.13007 0.611034 0.7752 1.29346C-0.00416848 2.75981 -0.204607 4.46534 0.21357 6.07243C1.24029 10.1515 6.84588 15.7571 10.925 16.7838C11.4755 16.9234 12.0412 16.9945 12.6091 16.9955C13.6884 16.9948 14.751 16.7295 15.7039 16.223C16.387 15.8693 16.8586 15.2091 16.9717 14.4484ZM15.4436 14.2166C15.4032 14.4907 15.2332 14.7285 14.987 14.8555C13.859 15.4618 12.5423 15.6153 11.305 15.285C7.79691 14.402 2.59842 9.20356 1.71542 5.69541C1.38478 4.45714 1.53837 3.1394 2.14494 2.01036C2.27267 1.76531 2.51038 1.5966 2.78383 1.55688C2.82677 1.55008 2.87017 1.5467 2.91363 1.54684C3.13803 1.54687 3.35309 1.63675 3.5108 1.79636L5.12157 3.40713C5.36942 3.65211 5.44264 4.02354 5.30622 4.34424C5.20071 4.59575 5.05016 4.8259 4.862 5.02332C3.53014 6.35134 4.72217 8.73154 6.49208 10.5084C8.262 12.2853 10.6461 13.4719 11.9772 12.14C12.1732 11.9523 12.4017 11.8018 12.6516 11.6958C12.9725 11.5591 13.3444 11.6322 13.5895 11.8805L15.2003 13.4912C15.3931 13.6799 15.4836 13.9498 15.4436 14.2166Z" fill="#FE5900"/>
<path d="M9.27327 3.86389C8.8466 3.86389 8.50073 4.20976 8.50073 4.63643C8.50073 5.06311 8.8466 5.40898 9.27327 5.40898H13.9086C14.3352 5.40898 14.6811 5.06311 14.6811 4.63643C14.6811 4.20976 14.3352 3.86389 13.9086 3.86389H9.27327Z" fill="#FE5900"/>
</svg>
