<svg width="23" height="23" viewBox="0 0 23 23" fill="none" xmlns="http://www.w3.org/2000/svg">
<circle cx="11.5" cy="11.5" r="11.5" fill="#FE5900"/>
<g clip-path="url(#clip0_1123_3865)">
<path d="M9.92341 8.64696C10.2126 7.98328 10.0663 7.21028 9.5548 6.69805L8.37367 5.51748C7.9813 5.12042 7.4219 4.93629 6.87038 5.02262C6.31263 5.10453 5.82816 5.44935 5.56808 5.94952C4.99698 7.02428 4.85008 8.27425 5.15645 9.45212C5.91121 12.4417 10.0202 16.5536 13.0093 17.3027C13.4128 17.405 13.8274 17.4571 14.2436 17.4578C15.0346 17.4573 15.8135 17.2629 16.5119 16.8916C17.3736 16.4422 17.7079 15.3793 17.2585 14.5175C17.176 14.3593 17.0699 14.2146 16.9439 14.0883L15.7633 12.9072C15.2509 12.3955 14.4777 12.2493 13.8139 12.5386C13.5041 12.6721 13.2215 12.8615 12.9804 13.0974C12.6916 13.3879 11.6266 12.9672 10.5604 11.9016C9.49418 10.8359 9.07463 9.77089 9.36169 9.48098C9.59856 9.2398 9.78897 8.9571 9.92341 8.64696V8.64696ZM9.75809 12.7033C11.0564 14.0005 12.8026 14.8753 13.7782 13.8992C13.9219 13.7616 14.0894 13.6513 14.2725 13.5736C14.5077 13.4734 14.7803 13.527 14.9599 13.7089L16.1405 14.8895C16.2812 15.0286 16.3464 15.2268 16.316 15.4223C16.2864 15.6232 16.1618 15.7975 15.9814 15.8906C15.1546 16.3348 14.1896 16.4474 13.2828 16.2054C10.7144 15.5576 6.90435 11.7476 6.25662 9.17582C6.01485 8.26817 6.12762 7.30252 6.57201 6.47497C6.66577 6.29549 6.83992 6.17189 7.04027 6.1426C7.07154 6.13762 7.10315 6.13515 7.13484 6.13525C7.2995 6.1352 7.45732 6.20105 7.57308 6.31813L8.75364 7.49869C8.9353 7.67824 8.98896 7.95047 8.88897 8.18552C8.81164 8.36985 8.7013 8.53853 8.5634 8.68323C7.5872 9.65653 8.46088 11.401 9.75809 12.7033V12.7033Z" fill="#FFF5ED"/>
</g>
<defs>
<clipPath id="clip0_1123_3865">
<rect width="12.4583" height="12.4583" fill="white" transform="translate(5 5)"/>
</clipPath>
</defs>
</svg>
