<svg width="18" height="18" viewBox="0 0 18 18" fill="none" xmlns="http://www.w3.org/2000/svg">
<path d="M7.11344 5.26673C7.53121 4.30784 7.31995 3.19098 6.58086 2.4509L4.87435 0.745199C4.30743 0.171518 3.49921 -0.0945231 2.70237 0.0302057C1.89652 0.148556 1.19655 0.646763 0.820767 1.36941C-0.0043565 2.92225 -0.216608 4.72823 0.226037 6.43003C1.31653 10.7495 7.25334 16.6904 11.572 17.7727C12.1549 17.9205 12.754 17.9958 13.3554 17.9969C14.4982 17.9961 15.6235 17.7152 16.6326 17.1788C17.8777 16.5295 18.3607 14.9937 17.7113 13.7486C17.5921 13.5201 17.4389 13.311 17.2568 13.1285L15.5511 11.4219C14.8107 10.6827 13.6936 10.4715 12.7344 10.8894C12.2869 11.0823 11.8786 11.356 11.5302 11.6968C11.113 12.1165 9.57421 11.5087 8.03374 9.96904C6.49327 8.42941 5.8871 6.89061 6.30186 6.47174C6.64408 6.12328 6.91919 5.71483 7.11344 5.26673ZM6.87458 11.1275C8.75044 13.0017 11.2734 14.2656 12.6829 12.8552C12.8906 12.6565 13.1325 12.4971 13.3971 12.3848C13.7369 12.24 14.1307 12.3175 14.3903 12.5804L16.096 14.2861C16.2992 14.4871 16.3936 14.7734 16.3496 15.0559C16.3068 15.3461 16.1268 15.598 15.8661 15.7324C14.6716 16.3743 13.2773 16.537 11.9671 16.1873C8.25631 15.2514 2.75144 9.74654 1.81559 6.03083C1.46627 4.71944 1.6292 3.32425 2.27127 2.12859C2.40674 1.86928 2.65836 1.69069 2.94782 1.64838C2.993 1.64119 3.03867 1.63761 3.08445 1.63775C3.32236 1.63768 3.55038 1.73282 3.71763 1.90199L5.42333 3.60769C5.68579 3.86711 5.76332 4.26043 5.61886 4.60003C5.50713 4.86635 5.34772 5.11007 5.14847 5.31913C3.73804 6.72538 5.00035 9.24586 6.87458 11.1275Z" fill="#FE5900"/>
</svg>
