<svg width="18" height="18" viewBox="0 0 18 18" fill="none" xmlns="http://www.w3.org/2000/svg">
<path d="M1.62862 8.83281C1.65004 7.89638 1.8429 6.98782 2.20504 6.13282C2.57575 5.25426 3.10718 4.46783 3.78432 3.78855C4.46146 3.10927 5.25002 2.57784 6.12859 2.20713C7.03715 1.82356 8.00143 1.62856 8.99786 1.62856C9.99428 1.62856 10.9586 1.82356 11.865 2.20713C12.741 2.57708 13.5366 3.11424 14.2071 3.78855C14.4193 4.00069 14.6185 4.22569 14.8028 4.4614L13.5128 5.46854C13.4873 5.48829 13.4679 5.51483 13.4568 5.54513C13.4457 5.57543 13.4433 5.60824 13.45 5.63981C13.4568 5.67137 13.4722 5.7004 13.4947 5.72355C13.5172 5.7467 13.5458 5.76304 13.5771 5.77068L17.3421 6.6921C17.4492 6.71782 17.5542 6.63639 17.5542 6.52711L17.5714 2.6507C17.5714 2.50713 17.4064 2.4257 17.295 2.5157L16.0864 3.46069C14.4385 1.35214 11.8757 0 8.99571 0C4.08646 0 0.0921959 3.93426 5.3584e-05 8.82423C-0.000518352 8.84711 0.00349311 8.86986 0.0118517 8.89115C0.0202103 8.91245 0.0327469 8.93186 0.0487227 8.94823C0.0646986 8.96461 0.0837906 8.97762 0.104873 8.9865C0.125956 8.99538 0.148604 8.99996 0.171481 8.99995H1.45719C1.55147 8.99995 1.62647 8.92495 1.62862 8.83281ZM17.8285 8.99995H16.5428C16.4485 8.99995 16.3735 9.07495 16.3714 9.16709C16.35 10.1035 16.1571 11.0121 15.795 11.8671C15.4242 12.7456 14.8928 13.5342 14.2157 14.2113C13.5322 14.8976 12.7197 15.4418 11.8249 15.8125C10.93 16.1833 9.9707 16.3732 9.00214 16.3713C8.03391 16.3731 7.0749 16.1832 6.18044 15.8125C5.28599 15.4418 4.47381 14.8976 3.79075 14.2113C3.5786 13.9992 3.37932 13.7742 3.19503 13.5385L4.48503 12.5314C4.51055 12.5116 4.52998 12.4851 4.54109 12.4548C4.5522 12.4245 4.55453 12.3917 4.54781 12.3601C4.54109 12.3285 4.52561 12.2995 4.50313 12.2763C4.48065 12.2532 4.45209 12.2369 4.42074 12.2292L0.655764 11.3078C0.548622 11.2821 0.443622 11.3635 0.443622 11.4728L0.428622 15.3513C0.428622 15.4949 0.593622 15.5763 0.705049 15.4863L1.91361 14.5413C3.56146 16.6478 6.1243 17.9999 9.00429 17.9999C13.9157 17.9999 17.9078 14.0635 17.9999 9.17566C18.0005 9.15279 17.9965 9.13004 17.9881 9.10874C17.9798 9.08745 17.9673 9.06804 17.9513 9.05166C17.9353 9.03529 17.9162 9.02228 17.8951 9.0134C17.874 9.00451 17.8514 8.99994 17.8285 8.99995Z" fill="#FE5900"/>
</svg>
