<svg width="42" height="42" viewBox="0 0 42 42" fill="none" xmlns="http://www.w3.org/2000/svg">
<path d="M16.3502 30.2727V12.7473H21.9466C24.2048 12.7473 25.8493 13.2055 26.8802 14.1218C27.9275 15.0382 28.4512 16.2982 28.4512 17.9018C28.4512 18.8509 28.2384 19.7427 27.813 20.5773C27.3875 21.4118 26.6757 22.0827 25.6775 22.59C24.6957 23.0973 23.3539 23.3509 21.6521 23.3509H20.0566V30.2727H16.3502ZM14.3866 27.6464V25.2655H23.8366V27.6464H14.3866ZM14.3866 23.3509V20.3073H21.5784V23.3509H14.3866ZM21.2839 20.3073C21.9875 20.3073 22.593 20.2336 23.1002 20.0864C23.6075 19.9227 24.0002 19.6691 24.2784 19.3255C24.5566 18.9818 24.6957 18.5482 24.6957 18.0246C24.6957 17.2718 24.4584 16.7155 23.9839 16.3555C23.5093 15.9791 22.7648 15.7909 21.7502 15.7909H20.0566V20.3073H21.2839Z" fill="#FFBA82"/>
<path d="M21 0C9.40313 0 0 9.40313 0 21C0 32.5969 9.40313 42 21 42C32.5969 42 42 32.5969 42 21C42 9.40313 32.5969 0 21 0ZM21 38.4375C11.3719 38.4375 3.5625 30.6281 3.5625 21C3.5625 11.3719 11.3719 3.5625 21 3.5625C30.6281 3.5625 38.4375 11.3719 38.4375 21C38.4375 30.6281 30.6281 38.4375 21 38.4375Z" fill="#FFBA82"/>
</svg>
