<svg width="21" height="21" viewBox="0 0 21 21" fill="none" xmlns="http://www.w3.org/2000/svg">
<path d="M7.87429 10.5C10.7735 10.5 13.1238 8.14974 13.1238 5.2505C13.1238 2.35127 10.7735 0.000976562 7.87429 0.000976562C4.97505 0.000976562 2.62476 2.35127 2.62476 5.2505C2.62476 8.14974 4.97505 10.5 7.87429 10.5Z" fill="#8F92A2"/>
<path d="M7.87428 12.2498C3.52764 12.2551 0.00529053 15.7774 0 20.1241C0 20.6073 0.391704 20.999 0.874906 20.999H14.8736C15.3568 20.999 15.7485 20.6073 15.7485 20.1241C15.7433 15.7774 12.2209 12.2551 7.87428 12.2498Z" fill="#8F92A2"/>
<path d="M19.2482 6.89087C18.2345 6.94135 17.4523 7.80178 17.4983 8.81568C17.5444 7.80178 16.7622 6.94135 15.7485 6.89087C14.7348 6.94135 13.9526 7.80178 13.9986 8.81568C13.9986 10.3293 15.9725 12.1027 16.9559 12.8919C17.2729 13.1458 17.7237 13.1458 18.0408 12.8919C19.0242 12.1045 20.998 10.3293 20.998 8.81568C21.0441 7.80174 20.2619 6.94135 19.2482 6.89087Z" fill="#8F92A2"/>
</svg>
