<svg width="21" height="21" viewBox="0 0 21 21" fill="none" xmlns="http://www.w3.org/2000/svg">
<path d="M3.49999 0H6.12499C8.05797 0 9.62497 1.567 9.62497 3.49999V6.12499C9.62497 8.05797 8.05797 9.62497 6.12499 9.62497H3.49999C1.567 9.62501 0 8.05801 0 6.12499V3.49999C0 1.567 1.567 0 3.49999 0Z" fill="#3A4060"/>
<path d="M14.875 0H17.5C19.433 0 21 1.567 21 3.49999V6.12499C21 8.05797 19.433 9.62497 17.5 9.62497H14.875C12.942 9.62497 11.375 8.05797 11.375 6.12499V3.49999C11.375 1.567 12.942 0 14.875 0Z" fill="#3A4060"/>
<path d="M3.49999 11.375H6.12499C8.05797 11.375 9.62497 12.942 9.62497 14.875V17.5C9.62497 19.433 8.05797 21 6.12499 21H3.49999C1.567 21 0 19.433 0 17.5V14.875C0 12.942 1.567 11.375 3.49999 11.375Z" fill="#3A4060"/>
<path d="M14.875 11.375H17.5C19.433 11.375 21 12.942 21 14.875V17.5C21 19.433 19.433 21 17.5 21H14.875C12.942 21 11.375 19.433 11.375 17.5V14.875C11.375 12.942 12.942 11.375 14.875 11.375Z" fill="#3A4060"/>
</svg>
