<svg width="20" height="20" viewBox="0 0 20 20" fill="none" xmlns="http://www.w3.org/2000/svg">
<g opacity="0.7">
<path d="M9.99992 0.833252C8.18693 0.833252 6.41465 1.37087 4.9072 2.37811C3.39974 3.38536 2.22483 4.817 1.53103 6.49199C0.837224 8.16698 0.655693 10.0101 1.00939 11.7882C1.36309 13.5664 2.23613 15.1997 3.51811 16.4817C4.80009 17.7637 6.43344 18.6368 8.21159 18.9904C9.98975 19.3441 11.8329 19.1626 13.5079 18.4688C15.1828 17.775 16.6145 16.6001 17.6217 15.0926C18.629 13.5852 19.1666 11.8129 19.1666 9.99992C19.1637 7.56965 18.197 5.23974 16.4786 3.52127C14.7601 1.80281 12.4302 0.836119 9.99992 0.833252ZM9.99992 17.4999C8.51656 17.4999 7.06651 17.0601 5.83315 16.2359C4.59978 15.4118 3.63848 14.2405 3.07083 12.87C2.50317 11.4996 2.35464 9.9916 2.64403 8.53674C2.93342 7.08188 3.64773 5.74551 4.69662 4.69662C5.74552 3.64772 7.08189 2.93342 8.53675 2.64403C9.9916 2.35464 11.4996 2.50316 12.87 3.07082C14.2405 3.63848 15.4118 4.59977 16.2359 5.83314C17.0601 7.06651 17.4999 8.51656 17.4999 9.99992C17.4977 11.9884 16.7068 13.8947 15.3008 15.3008C13.8947 16.7068 11.9884 17.4977 9.99992 17.4999Z" fill="#3A4060"/>
<path d="M10 9C9.78024 9 9.56542 9.06517 9.3827 9.18726C9.19998 9.30935 9.05757 9.48288 8.97347 9.68591C8.88937 9.88894 8.86737 10.1123 8.91024 10.3279C8.95311 10.5434 9.05894 10.7414 9.21433 10.8968C9.36972 11.0522 9.5677 11.158 9.78323 11.2009C9.99877 11.2437 10.2222 11.2217 10.4252 11.1376C10.6282 11.0535 10.8018 10.9111 10.9239 10.7284C11.0459 10.5457 11.1111 10.3309 11.1111 10.1111C11.1111 9.81643 10.994 9.53381 10.7857 9.32544C10.5773 9.11706 10.2947 9 10 9ZM6.11111 9C5.89135 9 5.67653 9.06517 5.49381 9.18726C5.31109 9.30935 5.16868 9.48288 5.08458 9.68591C5.00048 9.88894 4.97848 10.1123 5.02135 10.3279C5.06422 10.5434 5.17005 10.7414 5.32544 10.8968C5.48083 11.0522 5.67881 11.158 5.89434 11.2009C6.10988 11.2437 6.33329 11.2217 6.53632 11.1376C6.73934 11.0535 6.91288 10.9111 7.03497 10.7284C7.15706 10.5457 7.22222 10.3309 7.22222 10.1111C7.22222 9.81643 7.10516 9.53381 6.89679 9.32544C6.68841 9.11706 6.4058 9 6.11111 9ZM13.8889 9C13.6691 9 13.4543 9.06517 13.2716 9.18726C13.0889 9.30935 12.9465 9.48288 12.8624 9.68591C12.7783 9.88894 12.7563 10.1123 12.7991 10.3279C12.842 10.5434 12.9478 10.7414 13.1032 10.8968C13.2586 11.0522 13.4566 11.158 13.6721 11.2009C13.8877 11.2437 14.1111 11.2217 14.3141 11.1376C14.5171 11.0535 14.6907 10.9111 14.8127 10.7284C14.9348 10.5457 15 10.3309 15 10.1111C15 9.81643 14.8829 9.53381 14.6746 9.32544C14.4662 9.11706 14.1836 9 13.8889 9Z" fill="#333E63"/>
</g>
</svg>
